<?xml version="1.0" encoding="UTF-8" standalone="no"?>
<!DOCTYPE svg PUBLIC "-//W3C//DTD SVG 1.1//EN" "http://www.w3.org/Graphics/SVG/1.1/DTD/svg11.dtd">
<svg width="100%" height="100%" viewBox="0 0 1875 1875" version="1.1" xmlns="http://www.w3.org/2000/svg" xmlns:xlink="http://www.w3.org/1999/xlink" xml:space="preserve" xmlns:serif="http://www.serif.com/" style="fill-rule:evenodd;clip-rule:evenodd;stroke-linejoin:round;stroke-miterlimit:2;">
    <g transform="matrix(4.16667,0,0,4.16667,0,0)">
        <g>
            <rect x="0" y="0" width="450" height="450" style="fill:white;fill-rule:nonzero;"/>
            <path d="M361.14,188.88L361.76,189.41C361.54,189.38 361.32,189.36 361.07,189.34C361.11,189.17 361.12,189.02 361.14,188.88ZM280.41,160.34C279.22,162.35 273.94,163.75 271.92,164.38C271.42,164.53 270.49,164.64 269.59,164.81L270.28,162.16L270.12,162.16C271.23,161.76 272.32,161.26 273.49,160.69C274.49,160.2 275.41,160.01 275.44,159.27L275.4,159.02L275.4,155.42L275.03,155.27C275.18,155.27 275.31,155.28 275.43,155.31C276.58,155.56 276.43,157.23 277.769,157.73C277.98,157.81 278.25,157.86 278.55,157.92C279.85,158.15 281.58,158.34 280.41,160.34ZM293.73,59.681L293.73,59.601C294.04,59.613 294.342,59.554 294.647,59.495C295.071,59.412 295.5,59.33 295.96,59.44C295.24,59.42 294.53,59.561 293.73,59.681ZM294.33,61.19C294.88,61.621 295.47,62.02 295.83,62.641C295.31,62.21 294.74,61.741 294.33,61.19ZM372.76,105.42C372.13,103.48 371.29,101.46 370.87,99.451C370.64,98.351 370.7,97.02 370.9,95.561C371.32,92.371 372.39,88.601 372.58,85.491L372.59,85.5L372.59,85.271C372.61,84.811 372.61,84.371 372.59,83.951L372.59,79.75L368.42,79.331L369.31,80.65C364.04,79.911 362.14,78.411 362.42,71.851C356.94,73.871 353.2,72.741 349.08,68.241C347.26,66.25 346.06,64.19 345.11,61.75C344.35,59.79 344.68,55.53 343.24,54.09C342.217,53.067 341.727,53.347 340.975,53.628C340.581,53.775 340.114,53.922 339.46,53.88C337.51,53.77 337.14,52.79 335.43,52.27C332.24,51.311 330.1,53.991 326.96,55.3C324.2,56.451 321.06,57.63 318.09,58.28C316.811,58.56 315.504,58.519 314.2,58.477C312.569,58.425 310.942,58.373 309.38,58.951C306.7,59.94 304.49,62.9 301.16,62.15C299.58,61.8 298.95,60.27 297.52,59.73C297.03,59.54 296.57,59.471 296.12,59.451C295.78,57.581 293.73,57.33 293.12,55.76L293.12,59.76C293.26,60.13 293.48,60.42 293.73,60.67L293.73,63.601C293.73,64.241 294.01,64.8 294.4,65.291C295.51,66.67 297.57,67.59 297.17,68.61C296.78,69.641 291.51,69.33 290.92,68.81C289.74,67.75 290.13,65.98 290.54,64.36C290.69,63.741 290.85,63.141 290.92,62.61C290.95,62.3 290.96,62.02 290.92,61.77L290.92,58.61C290.84,59.23 290.64,59.94 290.47,60.67C289.41,59.17 287.07,59.79 284.83,59.931C278.11,60.351 273.1,63.061 266.88,65.331C261.01,67.48 253.96,69.25 249.1,73.391C246.519,75.57 245.5,78.601 243.1,80.661C240.51,82.88 238.25,83.241 236.29,86.201C235.29,87.721 234.25,89.241 233.52,90.911C232.73,92.721 232.86,94.351 232.49,96.21C232.26,97.36 231.5,98.25 230.82,99.17L229.56,97.971L229.56,102.34L229.57,102.36C229.64,104.42 231.11,106.64 231.2,108.73C231.24,109.92 231,110.84 231.6,111.96C232.21,113.11 232.46,113.15 232.61,114.57C232.79,116.27 233.21,117.81 233.53,119.38C233.65,119.92 233.75,120.47 233.82,121.02C234.02,122.44 233.45,123.94 232.61,125.11L232.56,124.94L229.86,124.78L229.86,128.94C229.89,130 230.76,131.02 232.42,131.97C233.72,132.71 234.66,133.18 236.18,133.17C238.07,133.14 240.12,132.44 241.69,133.93C242.48,134.69 242.47,135.36 243.5,135.74C244.51,136.12 245.86,135.62 246.68,135.09C247.82,134.35 247.82,134.28 249.14,133.93C250.19,133.65 250.72,133.22 251.56,132.49C251.82,132.77 252.1,132.95 252.39,133.07C253.37,133.48 254.48,133.16 255.59,133.52C257.62,134.16 256.85,135.17 255.19,135.54C253.06,136.02 253.16,135.81 252.12,137.52C251.53,138.5 250.72,139.44 250,140.37L249.83,140.56L249.97,140.31L246.85,140.31L246.85,144.32C246.77,145.48 247.76,146.78 247.97,148.04C247.99,148.17 248.01,148.3 248.03,148.43C248.26,150.21 248.08,151.93 247.91,153.66L247.76,153.68L247.76,155.58C247.72,156.28 247.71,156.98 247.76,157.68C250.07,158.83 250.98,161.13 252.77,162.77C253.79,163.69 255.37,163.37 256.799,163.37C259.84,163.37 262.52,163.35 265.47,163.16C266.05,163.12 266.6,163.05 267.13,162.96L267.17,162.95L267.17,166.25L267.19,166.25C266.98,167.4 268.7,168.34 269.1,169.21C269.24,169.51 269.34,169.85 269.41,170.22L269.45,170.39L269.45,170.4C269.94,172.97 269.12,176.76 268.55,178.74C267.69,181.62 267.05,184.83 265.32,187.2C264.37,188.5 263.47,190.08 262.04,190.94C260.65,191.78 259.459,191.75 258.17,192.96C256.92,194.12 256.109,195.31 254.38,195.83C253.17,196.2 250.67,196.36 249.73,197.27C248.94,198.03 248.38,200.29 247.93,201.27C247.33,202.58 246.65,203.96 245.96,205.34C245.26,206.77 244.58,208.64 243.29,209.53C242.28,210.234 241.103,210.189 239.906,210.145C239.421,210.126 238.932,210.108 238.45,210.14C236.66,210.26 235.36,210.42 233.66,209.69C232.36,209.12 230.91,208.44 229.59,207.93C227.99,207.3 226.77,206.68 225.4,205.64C224.3,204.82 223.13,203.54 221.72,203.43C220.803,203.358 219.891,203.544 218.976,203.73C217.996,203.929 217.013,204.129 216.02,204.01C213.76,203.73 213.32,201.63 211.59,200.31C210.51,199.48 209.83,198.59 208.41,198.65C207.12,198.7 205.94,199.43 204.64,198.8C203.43,198.21 202.87,197.47 201.56,197.04C198.27,195.95 200.04,194.38 201.99,193.2C202.32,193 202.65,192.81 202.97,192.64C204.4,191.86 206.77,190.58 207.33,188.9C207.4,188.67 207.45,188.43 207.45,188.19L207.45,184.06L205.6,183.95C205.62,183.75 205.66,183.53 205.74,183.27C205.89,182.8 206.17,182.41 206.49,182.03C207.03,181.39 207.68,180.82 208.01,180.1C208.27,179.53 208.37,178.99 208.37,178.47L208.38,178.47L208.38,174.47L206.32,174.41C205.76,173.74 205.17,173.09 204.73,172.44C203.36,170.42 201.12,165.83 202.32,163.26C202.37,163.14 202.43,163.01 202.51,162.9C203.72,161.03 209.72,159.81 210.46,162.52C213.01,163.39 213.82,161.31 215.87,160.39C216.84,159.96 218.27,159.87 219.06,159.08C219.91,158.24 219.59,157.18 220.1,156.3C221.01,154.71 223.24,155.51 224.11,154.24C224.19,154.12 224.24,153.96 224.28,153.76C224.37,153.26 224.35,152.54 224.28,151.81L224.28,149.76C224.24,149.96 224.19,150.12 224.11,150.24L224.1,150.26C224.04,149.84 223.98,149.48 223.95,149.25C223.75,147.83 222.84,146.16 221.52,145.41C219.53,144.28 218.83,145.44 217.44,146.39C214.27,148.53 211.39,146.21 210.43,143.16C209.85,141.32 209.82,139.47 209.83,137.55C209.83,137.2 209.87,136.86 209.92,136.53C210.03,135.84 210.23,135.17 210.36,134.45C210.48,133.79 210.51,133.51 210.47,133.31L210.47,129.31L208.39,129.31C208.08,128.7 207.77,128.09 207.45,127.48C206.32,125.36 204.48,123.73 203.49,121.59C202.96,121.78 198,122.49 198.58,121.49C197.79,122.83 196.89,123.92 195.85,124.9C195.19,124.06 194.11,123.17 193.67,122.67L193.67,126.67L193.71,126.71C194.73,127.83 198.5,130.68 194.91,130.9C193.66,130.98 192.66,130.3 192.27,129.09C192.08,128.47 192.52,127.83 192.09,127.27C191.47,126.46 190.24,126.87 189.41,126.55C188.44,126.17 187.7,125.36 187.15,124.5C186.84,124.02 184.98,119.08 185.8,118.83C183.21,119.62 180.9,118.54 179.34,121C178.26,122.69 178.77,125.56 178.12,127.47C175.1,136.44 173.54,145.81 172.51,155.21C171.28,166.36 170.05,177.56 166.88,188.37C164.16,197.61 160.71,205.65 155.47,213.72C149.62,222.73 141.47,229.81 135.68,238.81C134.94,239.96 134.08,240.95 133.39,241.88L132.17,240.88L132.17,244.37C132.03,245.24 132.22,246.16 132.99,247.21C131.47,247.32 128.19,245.42 125.84,244.79L127.46,244.54L123.36,241.34C123.36,241.34 123.32,245.71 123.34,246.09C123.39,247.06 123.62,248.42 123.57,249.23L121.14,250.87L121.14,254.18C121.12,254.4 121.11,254.63 121.14,254.87C122.66,254.98 123.98,254.33 125.34,253.9L125.34,255.9C126.53,261.66 131.09,263.81 136.03,265.78C137.59,266.4 139.41,266.46 140.87,267.4C142.46,268.41 142.51,269.65 143.65,270.87C143.85,271.09 144.08,271.32 144.33,271.55C144.96,272.15 145.74,272.79 146.62,273.45C149.23,275.42 152.68,277.52 155.51,278.8C156.34,279.18 157.11,279.49 157.8,279.7C160.52,280.53 164.87,281.71 167.69,280.75C168.24,280.56 168.89,280.17 169.6,279.69C171.45,278.46 173.65,276.7 175.25,276.83C175.35,276.83 175.45,276.84 175.55,276.87C180,277.93 174.01,281.99 172.33,282.72C169.29,284.04 166.33,284.64 163.05,283.92C160.36,283.33 156.85,280.98 155.19,283.13C154.46,284.06 154.96,285.75 153.83,287C151.29,289.82 146.55,291.04 142.94,289.93C140.92,289.31 139.15,287.17 137.05,286.95C136.77,286.92 136.37,286.92 135.93,286.96L136.46,285.32L131.23,285.32L131.23,289.34C131.21,289.46 131.19,289.57 131.19,289.7L131.19,289.78L131.2,289.84C131.46,292.13 135.67,291 135.8,293.98C134.573,294.025 133.522,293.969 132.533,293.913C130.899,293.821 129.435,293.729 127.63,294.09L127.92,292.69L122.3,292.69L122.3,296.74C122.25,297.38 122.76,298.18 124.14,299.25C125.57,300.37 128.59,303.19 130.99,303.69C134.12,304.33 136.84,304.21 139.51,305.86C140.66,306.58 142.32,307.89 143.27,309.37C143.88,310.33 144.2,311.37 143.9,312.36C143.11,314.9 137.97,315.33 135.68,315.63C130.09,316.37 126.58,307.03 121.32,305.09C115.95,303.12 109.77,299.94 103.93,302.02C100.47,303.25 98.31,305.49 95.46,302.12C93.68,300.03 92.64,295.9 90.08,294.61C87.08,293.13 84.919,296.65 82.56,297.99C82.18,298.21 81.779,298.39 81.379,298.57L81.5,297.71L77.54,297.38L77.54,301.44L77.549,301.45C77.54,302 77.759,302.66 78.359,303.53C80.089,306.04 83.21,307.82 85.229,310.14C87.54,312.8 88.31,314.9 92.279,313.72C94.1,313.18 96.14,312.34 97.879,311.57C96.879,313.38 99.209,317.05 100.95,318.21C102.1,318.99 104.24,318.99 105.63,319.81C106.4,320.27 106.5,321.38 107.56,321.49C108.84,321.61 108.4,320.78 109.01,320.62C109.905,320.39 110.537,320.514 111.087,320.637C111.926,320.825 112.575,321.013 113.68,319.95C114.75,318.93 114.53,316.68 115.37,315.45C118.55,310.77 121.85,313.39 125.28,316.29C127.12,317.84 128.64,319.09 130.95,319.87C132.53,320.415 133.844,320.184 135.144,319.953C136.205,319.765 137.258,319.576 138.44,319.81C140.06,320.13 140.93,321.91 142.49,322.45C143.381,322.756 144.307,322.605 145.217,322.454C146.063,322.314 146.894,322.174 147.67,322.4C149.17,322.83 149.91,324.13 151.13,325.06C153.33,326.74 156.26,328.29 156.82,324.3C156.84,324.17 156.83,324.04 156.83,323.92L156.84,323.92L156.84,319.78L154.4,319.21C153.53,317.86 152.98,316.45 153.98,314.83L154.08,314.69C155.208,313.137 158.217,313.139 160.304,313.141C160.716,313.141 161.092,313.141 161.41,313.13C161.55,311.04 164.52,309.47 166.29,310.94L166.42,311.07C166.79,311.4 166.96,311.77 167.03,312.16L166.1,312.56L166.1,316.56C166.93,316.95 167.6,316.94 168.49,316.99C169.32,317.045 170.047,316.767 170.783,316.49C171.519,316.213 172.265,315.935 173.13,315.99C175.02,316.11 174.96,317.51 176.72,316.55C177.43,316.17 177.07,314.93 177.51,314.53C177.98,314.09 179.42,313.78 179.59,313.58C180.54,312.47 181.08,311.42 181.76,310.08C183.71,306.24 184.26,306.66 187.09,309.29C188.25,310.39 188.83,310.34 189.19,311.11C189.32,311.39 189.43,311.79 189.52,312.4C189.56,312.66 189.52,313.14 189.44,313.69L184.47,314.07L184.47,318.12C184.47,318.58 185.14,319.04 186.84,319.21C188.013,319.332 189.211,319.195 190.416,319.059C192.17,318.86 193.939,318.661 195.67,319.26C199.59,320.62 198.73,320.73 201.35,316.99C202.27,315.67 203.03,315.23 203.78,313.78C204.4,312.55 205.03,311 205.58,309.77C206.61,309.82 209.05,312.77 209.87,313.71C210,313.86 210.13,314.01 210.24,314.15C211.38,315.54 211.47,316.14 211.17,316.74L209.45,316.74L209.45,320.88L209.46,320.88C209.4,325.05 214.92,328.22 215.36,332.44C217.13,331.29 219.51,330.71 221.51,332.17C221.87,332.43 222.15,332.7 222.37,332.96C222.58,333.2 222.72,333.44 222.83,333.68L221.75,334.14L221.75,338.14C222.494,338.103 223.217,338.19 223.934,338.276C224.806,338.38 225.671,338.485 226.56,338.37C228.12,338.16 229.37,337.24 231,337.16C232.56,337.09 233.86,338.38 235.36,338.42C237.54,338.48 237.04,337.83 238.72,336.93C241.04,335.69 244.83,333.28 247.32,335.74C249.42,337.82 248.4,341.47 250.96,343.76C253.05,345.62 256.9,347.53 259.42,348.45C261.959,349.38 266.29,348.84 266.11,352.45C266.82,352.31 267.57,352.18 268.32,352.12C269.32,352.04 270.33,352.06 271.29,352.269L267.8,352.96L267.8,357L267.81,357.05L267.68,357.05L267.68,361.06C267.75,361.4 268.21,361.66 269.269,361.79C269.269,362.44 269.06,362.76 268.72,362.94L264.71,362.5L264.71,366.17C264.7,366.3 264.7,366.42 264.7,366.55C264.7,367.37 264.83,368.2 265.03,368.88L265.07,369.01C265.88,371.58 266.54,370.85 265.28,372.55L261.269,372.1L261.269,376.1C261.35,376.85 261.81,377.45 262.27,378.02C263.07,378.99 263.9,379.91 263.01,381.46C262.52,382.31 260.76,382.19 260.17,383.07C259.67,383.81 259.769,385.39 259.75,386.24C259.75,385.42 257.82,387.11 257.25,387.65L256.25,387.21L256.26,391.13C256.239,391.41 256.239,391.68 256.26,391.92L256.26,392.04L256.269,392.04C256.28,392.16 256.28,392.3 256.299,392.4C256.829,395.62 259.63,394.8 260.68,396.75C260.84,397.04 260.959,397.4 261.03,397.84C261.06,398.06 261.07,398.28 261.07,398.5L260.01,399.41L260.01,403.41C261.39,402.76 262.96,402.54 264.43,402.25C264.47,401.56 264.88,400.15 265.72,399.9C267.97,399.23 266.57,400.61 267.49,401.07C268.9,401.77 270.71,403.31 272.74,401.45C273.9,403.06 275.26,401.42 276.53,400.69C276.42,401.23 276.65,401.91 276.59,402.45C278.9,403.99 278.67,402.22 280.45,401.93C282.18,401.65 282.39,401.78 284.38,402.32C286.56,402.91 287.7,402.54 287.56,401.58L287.56,397.91L283.94,396.72C284.55,396.63 285.74,396.7 286.82,396.24C287.25,396.06 287.66,395.78 288.01,395.38C288.93,394.3 287.73,392.26 288.66,391.19C289.25,390.51 291.55,390.18 292.45,389.94L292.45,385.94L292.17,385.87C292.19,385.75 292.21,385.62 292.24,385.5C292.28,385.35 292.32,385.22 292.38,385.09C292.85,383.87 293.82,383.33 293.86,381.95L293.86,377.95L287.83,377.95L288.01,379.69C287.31,379.35 286.8,379.01 286.64,378.7C285.88,377.21 287.88,376.86 287.51,375.42L287.46,375.26L287.46,371.26L282.79,373.26L282.81,373.38C281.48,373.19 280.22,373.11 279.62,373.08C279.19,374.05 278.54,374.61 277.81,375.4C277.67,373.92 277.93,371.519 277.42,370.21C276.76,368.51 274.59,368.2 275.14,365.98C275.24,365.59 275.67,365.11 276.22,364.66C277.15,363.9 278.42,363.24 278.94,363.36C279.93,363.6 280.94,366.04 281.81,366.61C283.23,365.03 282.98,362.61 284.06,361.19C285.58,359.2 288.13,360.2 289.72,358.94C291.23,357.73 291.96,355.69 293.9,354.34C295.41,353.29 297.03,351.95 298.71,351.43L298.71,349C299.05,348.69 299.34,348.39 299.29,348.04L299.29,344.12L293.95,344.83L294.55,347.43L294.12,347.43L294.12,348.75C292.7,349.42 291.37,350.07 290.71,350.03C290.67,348.58 289.769,346.1 290.3,344.74C290.31,344.72 290.38,344.58 290.48,344.38C290.84,343.69 291.66,342.3 291.85,342.96C290.56,338.52 297.64,334.43 298.36,330.13C298.67,330.243 299.075,330.226 299.477,330.209C299.854,330.194 300.229,330.178 300.519,330.27C300.07,328.1 301.5,328.31 302.16,326.88C302.83,325.45 302.67,325.28 302.93,323.9C302.93,323.92 302.59,322.23 302.6,321.88C302.61,321.62 303.76,321.07 303.78,320.43L303.78,316.43L302.37,316.36C301.89,313.03 302.29,309.95 301.56,306.7C300.65,302.65 296.56,300.33 294.2,297.21C293.02,295.64 292.22,294.31 292.22,292.33C292.22,291.75 292.4,291.12 292.6,290.49C292.95,289.42 293.38,288.3 293.17,287.26L293.22,283.62L287.67,283.21L287.67,284.02C286.86,282.63 289.21,280.62 286.27,280.47L286.27,279.93C286.86,279.96 287.28,279.9 287.56,279.78C287.84,279.66 287.98,279.47 288,279.25L288,275.25L283.25,274.58L282.51,276.74C279.33,275.39 281.96,274.8 282.79,272.86C282.97,272.45 283.07,271.97 283.01,271.42L283.01,267.42L279.9,267.21C280.019,266.91 280.31,266.56 280.87,266.11L280.89,266.1C281.09,265.93 281.33,265.76 281.6,265.58C281.69,265.519 281.78,265.46 281.87,265.41C283.79,264.21 286.75,263.33 288.83,263.13C288.75,262.67 288.7,262.28 288.68,261.93C288.67,261.82 288.67,261.71 288.67,261.61C288.67,257.421 293.92,262.86 295.88,263.13L295.88,259.13L292.64,256.52C293.07,255.8 293.91,255.22 294.8,255.02C295.31,254.9 295.84,254.91 296.32,255.09C297.86,255.68 297.65,257.86 298.88,258.791C301.47,260.731 306.94,257.85 307.84,262.13C310.37,261.891 310.86,261.94 312.69,262.96C313.84,263.6 315.34,266.08 315.67,262.56L315.64,262.39L315.66,262.4L315.66,259.75C315.79,259.74 315.92,259.74 316.08,259.74C317.52,259.75 317.92,262.89 319.75,260.37C322.87,262.83 326.03,257.231 327.81,256.66C327.964,256.612 328.371,256.718 328.829,256.822C329.322,256.935 329.873,257.048 330.23,256.97C331.01,256.8 331.71,255.89 332.41,255.5C333.63,254.83 335.8,252.97 337.26,253.07C338.89,253.18 339.38,254.86 341.48,254.5C342.97,254.24 344.65,252.85 345.72,251.71C347.32,250.03 346.51,249.62 347.12,248.04C347.77,246.38 348.51,246.25 348.74,244.41C348.77,244.2 348.77,244.01 348.76,243.83L348.77,243.83L348.74,239.5L342.17,238.25L344.54,240.26C344.04,240.03 343.54,239.76 343.09,239.43C341.54,238.28 338.05,236.19 337.72,234.1C337.51,232.75 337.99,232.24 338.7,231.91C339.57,231.48 340.8,231.31 341.53,230.09C342.39,228.66 341.29,226.96 342.65,225.81C343.359,225.211 344.473,225.326 345.56,225.442C346.269,225.517 346.966,225.592 347.53,225.47C350.25,224.88 352.82,222.74 354.14,220.38C355.23,218.41 354.53,218.61 356.39,217.19C357.98,215.96 358.17,216.21 359.22,214.38C361.02,211.2 362.11,210.39 366.25,210.5L366.25,206.5L363.61,205.09C363.37,204.56 363.16,204.03 363.04,203.5C362.85,202.67 363.03,201.63 363.36,200.49C364.1,197.91 365.64,194.82 365.48,192.55L365.49,192.55L365.45,188.17L361.09,188.17C360.83,187.24 359.77,187.34 359.42,186.56C359.41,186.53 356.9,181.18 356.8,181.96C356.58,183.68 355.14,184.79 354.56,186.52C352.94,186.34 350.91,184.69 349.2,184.19C347.36,183.65 345.58,183.13 343.65,183.07C341.42,183 337.99,181.8 336.79,179.3C336.16,177.99 336.76,175.9 336.39,174.5C335.98,172.99 334.73,172.32 335.26,170.66C335.6,170.73 336.01,170.66 336.41,170.61C336.77,170.56 337.12,170.52 337.42,170.59C337.35,170.28 337.39,170 337.55,169.73C337.923,169.83 338.367,169.763 338.777,169.696C339.104,169.642 339.409,169.589 339.64,169.62L339.64,165.62L336.57,163.52C336.22,162.49 336.21,161.46 336.96,160.45L337.05,160.34C338.65,158.32 343.769,158 346.12,157.92C348.34,157.85 348.8,158.59 350.54,159.18C352.84,159.95 352.7,159.68 354.78,159.33C356.19,159.09 357.95,158.39 359.42,158.53C361.1,158.68 362.29,159.97 364.03,159.91L364.03,155.91L363.2,155.5C362.96,153.62 362.92,151.86 363.04,149.91C363.1,148.7 363.23,147.41 363.41,145.98C364.21,139.61 362.67,133.83 366.23,128.04C368.37,124.55 369.99,121.33 370.96,117.39C371.59,114.82 373.27,112.53 373.52,109.96L373.56,105.42L372.76,105.42Z" style="fill:rgb(236,236,236);fill-rule:nonzero;"/>
            <path d="M231.396,183.726C230.732,183.958 229.94,183.345 229.173,183.521C228.195,183.744 227.831,184.489 227.411,185.34C226.296,187.594 226.158,186.536 223.938,186.495C222.873,186.474 221.934,187.235 220.97,187.614C219.658,188.132 218.168,188.269 216.924,188.951C215.059,189.978 213.641,190.753 212.852,192.008L212.151,190.125L212.226,196.036C212.412,197.932 212.943,199.959 215.107,199.629C216.749,199.377 218.08,198.791 219.967,199.009C221.8,199.219 223.594,199.803 225.091,200.908C228.543,203.455 231.572,206.599 235.833,207.716C237.529,208.165 239.735,207.164 241.272,206.459C244.398,205.027 245.243,201.932 245.191,198.739C245.164,196.848 244.853,196.229 246.84,195.534C248.36,195.001 250.125,195.069 251.318,193.814C252.46,192.611 253.515,191.357 254.986,190.621C256.653,189.786 258.427,189.346 260.031,188.313C261.252,187.526 263.046,186.4 263.813,185.092C264.478,183.958 264.647,182.704 265.321,181.515C266.928,178.68 267.282,175.28 267.083,172.032L267.083,168.032L266.291,169.943C264.897,168.472 261.957,168.971 259.667,168.562C258.127,168.286 257.19,167.481 255.745,166.845C254.258,166.192 252.912,165.924 251.515,165.179C250.444,164.606 251.076,164.278 249.794,164.825C249.244,165.06 248.862,165.651 248.387,166.035C247.236,166.959 245.989,167.869 244.709,168.655C242.081,170.273 239.442,171.164 237.205,173.391C236.143,174.445 235.457,175.732 234.416,176.676C233.949,177.099 233.253,177.568 232.643,178.102L231.393,175.892L231.393,179.892C231.126,181.282 233.324,183.048 231.396,183.726Z" style="fill:rgb(236,236,236);fill-rule:nonzero;"/>
            <path d="M99.569,302.07C101.8,300.62 104.58,298.84 107.4,299.05C109.32,299.19 113.69,301.9 114.42,298.41C114.48,298.14 114.5,297.89 114.5,297.66L114.5,293.66C114.5,293.89 114.48,294.14 114.42,294.41C114.28,295.06 114.02,295.5 113.67,295.77C112.15,294.38 108.91,294.31 107.2,294.41C103.94,294.61 101.06,293.67 97.93,293.81C97.299,293.84 96.799,293.95 96.439,294.12C96.02,293.43 95.7,292.74 95.58,292.13L95.58,295.05C95.49,295.36 95.49,295.73 95.58,296.13C96.009,298.17 98.52,300.99 99.569,302.07Z" style="fill:rgb(236,236,236);fill-rule:nonzero;"/>
            <path d="M102.56,285.34C104.15,285.02 105.12,283.39 106.45,282.98C108.67,282.29 107.65,283.13 109.57,283.99C110.8,284.55 112.55,284.18 113.61,285.39C114.6,286.52 113.78,288.86 114.71,289.77C115.25,290.29 117.72,290.71 118.49,290.94C120.15,291.42 120.44,292.1 122.48,291.75C124.62,291.38 129.02,289.53 129.58,286.95C129.63,286.71 129.66,286.49 129.66,286.3L129.66,282.3C129.66,282.49 129.63,282.71 129.58,282.95C129.44,283.57 129.09,284.15 128.59,284.68C127.29,284.01 125.11,283.91 123.88,282.56C121.26,279.71 121.22,278.42 117.09,277.49C114.11,276.81 110.78,276.66 107.8,276.07C105.07,275.54 98.37,276.56 96.24,279.61C95.899,279.17 95.66,278.65 95.6,278.04C95.589,277.91 95.58,277.77 95.58,277.64L95.58,281.64C95.58,281.77 95.589,281.91 95.6,282.04C95.919,285.05 100.26,285.81 102.56,285.34Z" style="fill:rgb(236,236,236);fill-rule:nonzero;"/>
            <path d="M80.35,335.28C80.169,335.28 79.99,335.28 79.819,335.269C79.71,335.269 79.609,335.26 79.5,335.26C79.31,335.25 79.129,335.23 78.94,335.22C79.46,335.25 79.99,335.269 80.52,335.28L80.35,335.28ZM139.44,324C137.7,322.33 133.76,322.87 135.61,326.07C134.51,326.14 133.58,325.21 132.6,324.44C132.19,325.35 131.79,325.95 132.17,327.04C130.64,326.58 128.59,325.3 127.16,324.5C124.99,323.28 125.7,322.74 124.3,321.019C120.26,316.06 119.28,321.87 118.04,325.24C115.37,323.79 113.52,327.64 111.04,328.09C110.232,328.236 109.133,327.864 108.01,327.491C106.062,326.845 104.04,326.198 103.33,328.26C99.48,325.68 96.25,323.2 91.689,322.03C88.919,321.31 88.23,320.22 85.839,318.97C84.379,318.21 76.589,320.47 72.689,321.73C72.649,321.64 72.609,321.53 72.569,321.42C72.1,320.22 70.83,319.8 70.44,318.51L70.44,322.51C70.69,323.35 71.319,323.82 71.87,324.38C72.149,324.68 72.41,325 72.569,325.42C73.339,327.33 72.6,326.63 71.97,328.14C71.81,328.53 71.649,328.87 71.52,329.17C71.1,328.31 70.919,327.71 70.919,327.17L70.919,331.17C70.919,331.86 71.21,332.63 71.919,333.93C72.839,335.61 74.27,337.96 76.149,338.72C77.97,339.47 81.779,339.22 83.779,339.35L83.779,335.35L83.669,335.34C83.7,335.17 83.73,335.01 83.77,334.86L83.83,334.69C83.94,334.36 84.109,334.09 84.359,333.88C86.049,332.46 86.99,334.48 88.81,334.72C88.83,333.88 89.439,333.18 89.49,332.35C91.68,331.7 91.27,333.36 92.629,333.78C93.939,334.19 95.62,333.83 96.919,334.33C97.859,334.7 98.609,335.7 99.74,336.15C100.206,336.333 100.713,336.329 101.239,336.324C102.091,336.316 102.989,336.308 103.83,337.1C105.88,339.05 103.63,342.2 105.84,344.16C107.37,345.521 108.878,344.742 110.409,343.963C111.399,343.459 112.399,342.955 113.42,343.03C113.3,343.83 113.65,344.81 113.48,345.59C114.93,345.15 115.38,343.44 116.72,342.85C117.178,342.644 117.542,342.743 117.942,342.843C118.495,342.98 119.117,343.117 120.15,342.45C121.88,341.33 121.7,340.46 123.73,339.98C125.53,339.55 126.72,340.07 128.429,339.22C131.19,337.84 139.96,329.82 140.14,325.74L140.14,321.74C140.12,322.4 139.86,323.17 139.44,324Z" style="fill:rgb(236,236,236);fill-rule:nonzero;"/>
            <path d="M177.8,116.13L177.8,112.13C177.8,113.51 171.41,116.82 171.28,115.45L171.28,119.45C171.41,120.82 177.8,117.51 177.8,116.13Z" style="fill:rgb(236,236,236);fill-rule:nonzero;"/>
            <path d="M179.78,114.52C181.51,115.91 184.25,115.49 185.42,113.73C186.89,111.52 186.66,110.83 189.26,110.14C190.95,109.68 190.58,108.92 191.08,107.32C191.67,105.48 192.09,106.03 193.46,105.06C193.35,103.14 193.55,101.5 193.88,99.65C194.05,98.741 194,97.67 194.3,96.831C194.55,96.101 195.31,95.53 195.31,94.741L195.31,90.741C195.31,91.53 194.55,92.101 194.3,92.831C194.15,93.26 194.09,93.75 194.04,94.241C193.62,94.21 193.22,94.161 192.93,93.971C192.22,93.51 192.06,92.46 191.68,91.79C191.05,90.69 190.59,90.27 190.08,90.371C189.62,90.46 189.11,90.951 188.41,91.73C187.21,93.061 185.81,94.17 184.82,95.61C182.81,98.55 181.01,102.16 179.59,105.46C179.19,106.4 178.76,107.52 178.48,108.68C178.27,108.12 178.19,107.51 178.19,106.89L178.19,110.89C178.19,112.28 178.61,113.58 179.78,114.52Z" style="fill:rgb(236,236,236);fill-rule:nonzero;"/>
            <path d="M213.47,70.431C214.29,70.241 214.81,69.101 215.47,68.65C216.13,68.19 217.09,68.02 217.73,67.65C218.92,66.971 219.96,66 221.27,65.53C222.66,65.03 224.4,65.36 225.8,64.82C227.23,64.27 227.65,63.07 228.97,62.351C230.3,61.621 232.17,61.561 233.61,61.3C234.92,61.05 236.85,61.241 237.7,60.59C238.7,59.82 239.23,58.661 240.51,57.96C241.29,57.54 243,57.181 243.1,56.11L243.1,52.11C243,53.181 241.29,53.54 240.51,53.96C239.76,54.371 239.27,54.94 238.79,55.491C237.11,55.911 235.41,56.61 233.75,57.28L233.61,57.3C232.17,57.561 230.3,57.621 228.97,58.351C228.63,58.54 228.35,58.75 228.1,58.98C226.38,59.26 224.62,59.471 222.94,60.13C221.58,60.67 220.2,61.201 218.9,61.75C217.14,62.491 213.79,64.311 212.39,66.25C211.88,65.9 211.69,65.15 211.69,64.411L211.69,68.411C211.69,69.54 212.15,70.721 213.47,70.431Z" style="fill:rgb(236,236,236);fill-rule:nonzero;"/>
            <path d="M249.34,57.77C250.88,58.59 251.53,58.59 253.01,57.57C254.05,56.86 255.29,55.77 256.45,55.351C257.95,54.8 259.45,55.28 260.88,55.451C263.86,55.82 266.29,54.09 269.3,54.09C271.17,54.09 276.84,54.29 277.34,52.11L277.34,48.11C276.84,50.29 271.17,50.09 269.3,50.09C266.29,50.09 263.86,51.82 260.88,51.451C259.45,51.28 257.95,50.8 256.45,51.351C255.4,51.73 254.27,52.67 253.3,53.36C252.91,53.351 252.54,53.3 252.21,53.23C250.96,52.96 249.5,52.38 248.53,53.121C248.01,52.54 247.67,51.76 247.67,50.991L247.67,54.991C247.67,56.11 248.39,57.27 249.34,57.77Z" style="fill:rgb(236,236,236);fill-rule:nonzero;"/>
            <path d="M321.97,42.92C323.08,42.931 325.31,42.78 326.14,41.741L326.16,41.71L326.16,37.791L326.14,37.741C325.31,38.78 323.08,38.931 321.97,38.92C320.67,38.911 319.73,38.25 319.73,37.63L319.73,41.63C319.73,42.25 320.67,42.911 321.97,42.92Z" style="fill:rgb(236,236,236);fill-rule:nonzero;"/>
            <path d="M288.06,54.09C289.34,54.01 290.75,52.09 292.08,51.67C292.92,51.412 293.712,51.414 294.494,51.417C295.164,51.419 295.827,51.422 296.51,51.26C298.28,50.84 299.26,49.26 300.96,48.69C302.12,48.291 304.77,48.951 305.03,47.28L305.04,47.141L305.04,43.141L305.03,43.28C304.77,44.951 302.12,44.29 300.96,44.69C299.26,45.26 298.28,46.84 296.51,47.26C295.827,47.422 295.164,47.419 294.494,47.417C293.712,47.414 292.92,47.412 292.08,47.67C291.83,47.75 291.58,47.88 291.33,48.04C289.42,48.04 287.78,48.05 286.77,49.71C286.32,49.31 286.13,48.641 286.13,47.951L286.13,51.951C286.13,53.101 286.65,54.181 288.06,54.09Z" style="fill:rgb(236,236,236);fill-rule:nonzero;"/>
            <path d="M193.13,86.911C194.57,87.23 195.29,86.27 196.21,85.391C197.43,84.21 198.88,84.13 200.09,83.061C200.23,82.931 200.35,82.79 200.43,82.65C200.9,81.71 200.02,80.71 200.6,79.741C201.12,78.891 202.59,78.8 203.36,78.471C204.89,77.82 207.6,75.891 207.6,73.79L207.6,69.79C207.6,71.891 204.89,73.82 203.36,74.471C202.59,74.8 201.12,74.891 200.6,75.741C200.32,76.21 200.38,76.69 200.46,77.161C200.29,77.25 200.12,77.34 199.94,77.431C197.3,78.831 195.29,79.65 193.49,82.07C193.33,82.29 193.12,82.561 192.9,82.851C191.99,82.59 191.66,82.101 191.66,81.51L191.66,85.51C191.66,86.15 192.05,86.67 193.13,86.911Z" style="fill:rgb(236,236,236);fill-rule:nonzero;"/>
            <path d="M312.549,43.609C313.462,43.672 317.846,43.502 317.767,42.408L317.764,38.373L310.651,38.373L310.651,42.405C310.477,43.082 311.7,43.55 312.549,43.609Z" style="fill:rgb(236,236,236);fill-rule:nonzero;"/>
            <path d="M117.9,268.8C121.41,268.39 123.8,268.59 125.2,272.19C126.38,275.23 125.52,277.86 128.57,279.7C130.83,281.05 134.34,281.96 136.83,282.97C139.01,283.86 142.26,286.019 144.5,286.35C147.001,286.715 150.632,285.296 150.656,283.183L150.666,283.18L150.666,279.125L146.844,279.125L146.844,279.469C145.762,278.986 144.666,278.544 143.86,277.94C141.67,276.31 139.81,274.13 137.8,272.29C133.93,268.74 129.009,267.65 125.39,263.92C123.22,261.69 122.44,260.951 119.25,262.71C118.58,263.08 115.8,264.41 113.6,265.93C112.39,266.18 111.32,266.26 110.97,265.79C110.86,265.64 110.79,265.48 110.76,265.32L110.76,269.32C110.79,269.48 110.86,269.64 110.97,269.79C111.8,270.91 116.74,268.93 117.9,268.8Z" style="fill:rgb(236,236,236);fill-rule:nonzero;"/>
            <path d="M185.8,116.67L185.8,114.83C185.49,114.93 185.57,115.71 185.8,116.67Z" style="fill:rgb(236,236,236);fill-rule:nonzero;"/>
            <path d="M278.69,153.94L278.69,157.92L281.375,158.375L281.375,155.188L280.469,154.125L278.69,153.94Z" style="fill:rgb(171,218,228);fill-rule:nonzero;"/>
            <path d="M174.83,272.84L174.83,276.838L177.094,278.094L177.5,272.84L174.83,272.84Z" style="fill:rgb(171,218,228);fill-rule:nonzero;"/>
            <path d="M268.6,348.1L268.6,352.12L271.375,352.12L272,346.938L268.6,348.1Z" style="fill:rgb(171,218,228);fill-rule:nonzero;"/>
            <path d="M288.83,263.13C286.75,263.33 283.79,264.21 281.87,265.41C281.78,265.46 281.69,265.52 281.6,265.58C281.33,265.76 281.09,265.93 280.89,266.1L280.87,266.11L280.39,262.54L281.31,261L283.73,259.88L286.28,258.891L288.8,258.921C288.8,258.921 288.64,260.32 288.67,261.61C288.66,261.72 288.67,261.83 288.68,261.93C288.69,262.38 288.74,262.81 288.83,263.13Z" style="fill:rgb(171,218,228);fill-rule:nonzero;"/>
            <path d="M373.28,107.26C372.73,109.33 371.48,111.26 370.96,113.39C369.99,117.33 368.37,120.55 366.23,124.04C362.67,129.83 364.21,135.61 363.41,141.98C363.03,145.04 362.87,147.45 363.04,149.91C363.16,151.77 363.48,153.67 364.03,155.91C363.76,155.92 363.49,155.9 363.24,155.85C361.9,155.59 360.83,154.66 359.42,154.53C357.95,154.39 356.19,155.09 354.78,155.33C352.7,155.68 352.84,155.95 350.54,155.18C348.8,154.59 348.34,153.85 346.12,153.92C343.769,154 338.65,154.32 337.05,156.34C335.97,157.69 336.26,159.08 336.96,160.45C337.86,162.22 339.46,163.98 339.64,165.62C339.414,165.591 339.113,165.643 338.791,165.695C338.44,165.751 338.064,165.807 337.73,165.76L337.55,165.73C337.39,166 337.35,166.28 337.42,166.59C337.094,166.513 336.707,166.567 336.321,166.621C335.95,166.672 335.578,166.724 335.26,166.66C334.73,168.32 335.98,168.99 336.39,170.5L336.41,170.61C336.73,172.01 336.18,174.02 336.79,175.3C337.99,177.8 341.42,179 343.65,179.07C345.58,179.13 347.36,179.65 349.2,180.19C350.91,180.69 352.94,182.34 354.56,182.52C355.14,180.79 356.58,179.68 356.8,177.96C356.9,177.18 359.41,182.53 359.42,182.56C359.88,183.58 361.53,183.09 361.07,185.34C365.75,185.64 365.95,188.2 365.13,191.2C364.85,192.22 364.45,193.28 364.08,194.33C363.7,195.38 363.34,196.4 363.14,197.33C362.96,198.14 362.9,198.88 363.04,199.5C363.09,199.72 363.16,199.94 363.24,200.17C363.27,200.27 363.31,200.38 363.36,200.49C363.71,201.39 364.22,202.28 364.73,203.17C365.269,204.12 365.8,205.07 366.11,206.02C366.16,206.18 366.21,206.34 366.25,206.5C365.53,206.48 364.91,206.49 364.36,206.53C362.23,206.7 361.16,207.39 360.06,209.02C359.78,209.41 359.51,209.87 359.22,210.38C358.78,211.16 358.48,211.56 358.18,211.86C357.76,212.26 357.31,212.48 356.39,213.19C355.24,214.07 355.07,214.33 354.85,214.86C354.71,215.19 354.55,215.63 354.14,216.38C352.82,218.74 350.25,220.88 347.53,221.47C346.966,221.592 346.269,221.517 345.561,221.442C344.474,221.326 343.359,221.211 342.65,221.81C341.29,222.96 342.39,224.66 341.53,226.09C340.22,228.3 337.25,227.07 337.72,230.1C337.81,230.71 338.18,231.32 338.7,231.91C339.93,233.33 341.99,234.62 343.09,235.43C345.46,237.19 349.15,237.06 348.74,240.41C348.63,241.27 348.41,241.75 348.15,242.19C347.84,242.7 347.47,243.15 347.12,244.04C346.51,245.62 347.32,246.03 345.72,247.71C344.65,248.85 342.97,250.24 341.48,250.5C339.38,250.86 338.89,249.18 337.26,249.07C335.8,248.97 333.63,250.83 332.41,251.5C331.71,251.89 331.01,252.8 330.23,252.97C329.873,253.048 329.322,252.935 328.829,252.822C328.371,252.717 327.964,252.612 327.81,252.66C326.03,253.23 322.87,258.83 319.75,256.37C317.92,258.891 317.52,255.75 316.08,255.74C312.09,255.7 315.78,257.44 315.67,258.56C315.62,259.08 315.55,259.46 315.45,259.75C315.18,260.57 314.74,260.511 314.24,260.171C313.74,259.85 313.18,259.24 312.69,258.96C310.86,257.94 310.37,257.891 307.84,258.13C306.94,253.85 301.47,256.731 298.88,254.79C297.65,253.86 297.86,251.68 296.32,251.09C294.67,250.47 292.39,251.9 292.32,253.481C293.52,253.84 294.29,254.36 294.8,255.02C295.6,256.05 295.75,257.44 295.88,259.13C295.07,259.02 293.69,258.02 292.36,257.19C290.2,255.83 288.14,254.91 288.8,258.921L288.83,259.13C288.31,259.18 287.72,259.28 287.12,259.41L287.11,259.41C286.37,259.57 285.6,259.78 284.84,260.041C283.64,260.46 282.48,260.981 281.6,261.58C281.06,261.951 280.67,262.26 280.39,262.54C278.97,263.93 280.62,264.32 281.87,265.41C282.43,265.89 282.92,266.51 283.01,267.42C283.12,268.43 282.71,269.17 282.24,269.76C281.18,271.07 279.76,271.66 282.79,272.86L282.81,272.87C284.07,273.37 285.92,272.83 287,273.73C288.42,274.93 288.47,276.03 286.27,275.93L286.27,276.47C288.14,276.56 287.86,277.41 287.63,278.37C287.51,278.84 287.41,279.33 287.56,279.78C287.59,279.89 287.64,279.99 287.7,280.08C288.65,281.51 291.63,280.79 292.69,282.19C293.63,283.42 293.15,284.84 292.7,286.21C292.46,286.94 292.22,287.66 292.22,288.33C292.22,289.14 292.35,289.84 292.6,290.49C292.94,291.44 293.5,292.28 294.2,293.21C296.56,296.33 300.65,298.65 301.56,302.7C302.29,305.96 301.89,309.05 302.37,312.39C302.56,313.78 303.81,315.47 303.78,316.43C303.76,316.92 303.07,317.37 302.76,317.67C302.66,317.75 302.6,317.82 302.6,317.88C302.59,318.23 302.93,319.92 302.93,319.9C302.67,321.28 302.83,321.45 302.16,322.88C301.5,324.31 300.07,324.1 300.519,326.27C300.229,326.178 299.855,326.194 299.477,326.21C299.075,326.226 298.67,326.243 298.36,326.13C297.64,330.43 290.56,334.52 291.85,338.96C291.6,338.11 290.33,340.64 290.3,340.74C289.94,341.66 290.24,343.1 290.48,344.38C290.6,344.99 290.7,345.56 290.71,346.03C291.393,346.068 292.787,345.378 294.262,344.689C296.328,343.723 298.552,342.757 299.2,343.79C299.96,345.01 296.13,345.69 298.7,347.42L298.71,347.43C297.03,347.95 295.41,349.29 293.9,350.34C291.96,351.69 291.23,353.73 289.72,354.94C288.13,356.2 285.58,355.2 284.06,357.19C282.98,358.61 283.23,361.03 281.81,362.61C280.94,362.04 279.93,359.6 278.94,359.36C278.12,359.17 275.4,360.93 275.14,361.98C274.8,363.34 275.49,363.99 276.22,364.66C276.68,365.11 277.16,365.55 277.42,366.21C277.93,367.52 277.67,369.92 277.81,371.4C278.54,370.61 279.19,370.05 279.62,369.08C281.14,369.16 286.85,369.57 287.46,371.26C287.99,372.72 286.17,373.1 286.51,374.37C286.54,374.47 286.58,374.58 286.64,374.7C286.76,374.93 287.07,375.17 287.51,375.42C289.23,376.43 292.88,377.54 293.86,377.95C293.82,379.44 292.7,379.95 292.28,381.38L292.24,381.5C291.93,382.7 292.22,383.89 292.38,385.09C292.41,385.37 292.44,385.65 292.45,385.94C292.36,385.96 292.26,385.99 292.14,386.01C291.11,386.25 289.19,386.58 288.66,387.19C287.73,388.26 288.93,390.3 288.01,391.38C285.74,394.03 280.66,391 285.63,395.09C286.12,395.5 286.52,395.88 286.82,396.24C288.35,398.02 287.5,399.03 284.84,398.43C284.69,398.4 284.54,398.36 284.38,398.32C282.39,397.78 282.18,397.65 280.45,397.93C278.67,398.22 278.9,399.99 276.59,398.45C276.65,397.91 276.42,397.23 276.53,396.69C275.26,397.42 273.9,399.06 272.74,397.45C270.71,399.31 268.9,397.769 267.49,397.07C266.57,396.61 267.97,395.23 265.72,395.9C264.88,396.15 264.47,397.56 264.43,398.25C263.32,398.47 262.15,398.65 261.049,399.01C260.69,399.12 260.35,399.25 260.01,399.41C260.109,398.54 260.42,397.65 260.68,396.75C260.959,395.78 261.18,394.8 261.03,393.84C260.56,390.76 257.519,391.85 256.519,389.26L256.519,389.25C256.43,389 256.35,388.72 256.299,388.4C256.1,387.23 256.4,384.81 257.09,383.81C257.18,383.68 259.75,381.29 259.75,382.24C259.769,381.39 259.67,379.81 260.17,379.07C260.579,378.46 261.549,378.33 262.27,378.02C262.59,377.89 262.86,377.72 263.01,377.46C263.65,376.35 263.4,375.56 262.91,374.84C262.32,373.97 261.39,373.21 261.269,372.1C262.43,371.11 264.03,370.2 265.03,368.88L265.07,368.83C266.61,366.76 265.92,367.71 265.07,365.01L265,364.75C264.58,363.24 264.49,361.04 265.47,359.98C266.84,358.5 269.28,359.98 269.269,357.79C266.71,357.47 267.68,356.4 269.03,355.4C269.94,354.73 271.01,354.1 271.3,353.76C271.05,353.77 270.81,353.77 270.59,353.77C267.39,353.79 267.42,353.12 268.32,352.12C268.62,351.8 269,351.44 269.39,351.06C270.27,350.2 271.21,349.23 271.29,348.27C270.42,348.08 269.51,348.04 268.6,348.1C267.75,348.15 266.91,348.29 266.11,348.45C266.29,344.84 261.959,345.38 259.42,344.45C256.9,343.53 253.05,341.62 250.96,339.76C248.4,337.47 249.42,333.82 247.32,331.74C244.83,329.28 241.04,331.69 238.72,332.93C237.04,333.83 237.54,334.48 235.36,334.42C233.86,334.38 232.56,333.09 231,333.16C229.37,333.24 228.12,334.16 226.56,334.37C225.35,334.53 224.19,334.28 222.99,334.18C222.58,334.14 222.17,334.12 221.75,334.14C221.97,333.73 222.18,333.34 222.37,332.96C223.22,331.23 223.59,329.69 221.51,328.17C219.51,326.71 217.13,327.29 215.36,328.44C214.99,324.94 211.13,322.17 209.86,318.95C209.46,317.96 209.31,316.93 209.58,315.82C209.75,315.11 209.99,314.58 210.24,314.15C211.2,312.519 212.26,312.45 209.87,309.71C209.05,308.77 206.61,305.82 205.58,305.77C205.03,307 204.4,308.55 203.78,309.78C203.03,311.23 202.27,311.67 201.35,312.99C198.73,316.73 199.59,316.62 195.67,315.26C193.53,314.52 191.33,315 189.17,315.19C188.38,315.26 187.61,315.29 186.84,315.21C182.14,314.73 185.32,312.12 188.61,313.12C188.79,312.73 189.01,311.95 189.19,311.11C189.42,310.03 189.59,308.87 189.52,308.4C189.18,306.15 188.69,306.8 187.09,305.29C184.26,302.66 183.71,302.24 181.76,306.08C181.08,307.42 180.54,308.47 179.59,309.58C179.42,309.78 177.98,310.09 177.51,310.53C177.07,310.93 177.43,312.17 176.72,312.55C174.96,313.51 175.02,312.11 173.13,311.99C172.264,311.935 171.519,312.212 170.783,312.49C170.047,312.768 169.32,313.045 168.49,312.99C167.96,312.96 167.51,312.95 167.06,312.86C166.75,312.81 166.44,312.72 166.1,312.56C166.11,312.07 166.25,311.57 166.42,311.07C166.91,309.58 167.68,308.09 166.29,306.94C164.52,305.47 161.55,307.04 161.41,309.13C161.092,309.141 160.717,309.14 160.307,309.14C158.158,309.137 155.029,309.134 153.98,310.83C153.11,312.24 153.41,313.49 154.08,314.69C155.13,316.57 157.1,318.31 156.82,320.3C156.72,321.05 156.53,321.6 156.28,321.99C155.19,323.71 152.92,322.43 151.13,321.06C149.91,320.13 149.17,318.83 147.67,318.4C146.894,318.174 146.063,318.314 145.217,318.454C144.307,318.605 143.381,318.756 142.49,318.45C140.93,317.91 140.06,316.13 138.44,315.81C137.258,315.576 136.205,315.765 135.144,315.953C133.844,316.184 132.53,316.415 130.95,315.87C128.64,315.09 127.12,313.84 125.28,312.29C121.85,309.39 118.55,306.77 115.37,311.45C114.53,312.68 114.75,314.93 113.68,315.95C112.575,317.013 111.926,316.825 111.087,316.637C110.537,316.514 109.905,316.39 109.01,316.62C108.4,316.78 108.84,317.61 107.56,317.49C106.5,317.38 106.4,316.27 105.63,315.81C104.24,314.99 102.1,314.99 100.95,314.21C99.209,313.05 96.879,309.38 97.879,307.57C96.14,308.34 94.1,309.18 92.279,309.72C88.31,310.9 87.54,308.8 85.229,306.14C83.299,303.92 80.37,302.2 78.609,299.86C78.52,299.75 78.439,299.64 78.359,299.53C75.819,295.83 79.73,295.59 82.56,293.99C84.919,292.65 87.08,289.13 90.08,290.61C92.64,291.9 93.68,296.03 95.46,298.12C98.31,301.49 100.47,299.25 103.93,298.019C109.77,295.94 115.95,299.12 121.32,301.09C126.58,303.03 130.09,312.37 135.68,311.63C137.62,311.38 141.62,311.03 143.27,309.37C143.56,309.08 143.78,308.74 143.9,308.36C144.67,305.85 141.42,303.04 139.51,301.86C136.84,300.21 134.12,300.33 130.99,299.69C128.59,299.19 125.57,296.37 124.14,295.25L124.03,295.16C120.23,292.15 123.38,291.27 126.51,290.36C128.32,289.84 129.74,289.79 131.2,289.84C132.59,289.89 134.01,290.04 135.8,289.98C135.73,288.37 134.47,287.96 133.28,287.56C132.25,287.21 131.27,286.88 131.19,285.78C131.02,283.59 135.54,282.78 137.05,282.95C139.15,283.17 140.92,285.31 142.94,285.93C146.55,287.04 151.29,285.82 153.83,283C154.96,281.75 154.46,280.06 155.19,279.13C155.29,279 155.4,278.89 155.51,278.8C157.27,277.26 160.52,279.37 163.05,279.92C165.34,280.42 167.48,280.28 169.6,279.69C170.51,279.45 171.42,279.12 172.33,278.72C172.96,278.45 174.19,277.71 175.25,276.83C176.09,276.15 176.81,275.38 177.06,274.69C177.36,273.9 177.03,273.22 175.55,272.87C175.32,272.82 175.09,272.81 174.83,272.84C172.63,273.07 169.56,276.12 167.69,276.75C164.87,277.71 160.52,276.53 157.8,275.7C154.81,274.78 150.16,272.09 146.8,269.57C145.85,268.87 145.01,268.18 144.33,267.55C144.08,267.31 143.85,267.09 143.65,266.87C142.51,265.65 142.46,264.41 140.87,263.4C139.41,262.46 137.59,262.4 136.03,261.78C131.71,260.06 127.68,258.201 125.94,253.91L125.94,253.9L125.88,253.74C125.66,253.17 125.48,252.56 125.34,251.9C125.2,251.25 125.77,250.24 126.06,249.69C125.04,249.93 124.08,250.38 123.05,250.65C122.44,250.82 121.81,250.92 121.14,250.87C120.9,248.87 122.64,247.69 123.34,246.09C123.41,245.93 123.47,245.77 123.52,245.6C123.57,245.42 123.59,245.19 123.58,244.91C123.57,243.62 123.1,241.49 123.47,241.01C124.37,239.86 127.27,241.26 129.78,242.29C130.84,242.73 131.84,243.11 132.57,243.19C132.68,243.2 132.78,243.21 132.88,243.21L132.99,243.21L132.87,243.03L132.86,243.02L132.75,242.85C131.93,241.53 132,240.42 132.49,239.34L132.49,239.32C133.17,237.91 134.56,236.56 135.68,234.81C141.47,225.81 149.62,218.73 155.47,209.72C160.71,201.65 164.16,193.61 166.88,184.37C167.48,182.31 168.01,180.24 168.49,178.16C168.72,177.14 168.94,176.12 169.15,175.09L169.15,175.08C170.75,167.21 171.63,159.2 172.51,151.21C173.54,141.81 175.1,132.44 178.12,123.47C178.77,121.56 178.26,118.69 179.34,117C180.9,114.54 183.21,115.62 185.8,114.83C185.49,114.93 185.57,115.71 185.8,116.67C186.18,118.22 186.96,120.21 187.15,120.5C187.7,121.36 188.44,122.17 189.41,122.55C190.24,122.87 191.47,122.46 192.09,123.27C192.52,123.83 192.08,124.47 192.27,125.09C192.51,125.86 193.02,126.42 193.67,126.69L193.71,126.71C194.07,126.86 194.47,126.93 194.91,126.9C196.87,126.78 196.64,125.88 195.85,124.9C195.19,124.06 194.11,123.17 193.67,122.67C195.7,121.2 197.29,119.69 198.58,117.49C198,118.49 202.96,117.78 203.49,117.59C204.48,119.73 206.32,121.36 207.45,123.48C208.28,125.04 209.05,126.63 209.82,128.2C210.44,129.45 210.65,128.84 210.36,130.45C210.24,131.13 210.05,131.76 209.94,132.42C209.87,132.79 209.83,133.16 209.83,133.55C209.82,134.56 209.83,135.55 209.92,136.53C210.01,137.41 210.16,138.29 210.43,139.16C211.39,142.21 214.27,144.53 217.44,142.39C218.83,141.44 219.53,140.28 221.52,141.41C222.84,142.16 223.75,143.83 223.95,145.25C224.01,145.72 224.19,146.76 224.28,147.78C224.35,148.52 224.37,149.25 224.28,149.76C224.24,149.96 224.19,150.12 224.11,150.24L224.1,150.26C223.21,151.5 221,150.72 220.1,152.3C219.59,153.18 219.91,154.24 219.06,155.08C218.27,155.87 216.84,155.96 215.87,156.39C213.82,157.31 213.01,159.39 210.46,158.52C209.72,155.81 203.72,157.03 202.51,158.9C201.79,160.02 201.87,161.63 202.32,163.26C202.86,165.25 203.94,167.27 204.73,168.44C206.27,170.7 209.46,172.93 208.01,176.1C207.95,176.23 207.89,176.35 207.81,176.46C207.21,177.42 206.1,178.16 205.74,179.27C205.27,180.77 205.85,181.28 206.49,182.03C206.72,182.3 206.96,182.61 207.16,183C207.23,183.13 207.29,183.27 207.33,183.4C207.51,183.93 207.49,184.44 207.33,184.91C207.18,185.35 206.91,185.75 206.57,186.13C205.6,187.21 204.03,188.06 202.97,188.64C202,189.18 200.85,189.85 200.21,190.55C199.51,191.32 199.44,192.11 200.88,192.77C201.04,192.85 201.23,192.92 201.43,192.99L201.56,193.04C201.71,193.09 201.86,193.14 201.99,193.2C202.33,193.34 202.62,193.51 202.89,193.69C203.33,193.98 203.74,194.3 204.25,194.59C204.37,194.66 204.5,194.73 204.64,194.8C205.94,195.43 207.12,194.7 208.41,194.65C209.83,194.59 210.51,195.48 211.59,196.31C213.32,197.63 213.76,199.73 216.02,200.01C217.013,200.129 217.996,199.929 218.976,199.73C219.891,199.544 220.803,199.357 221.72,199.43C223.13,199.54 224.3,200.82 225.4,201.64C226.77,202.68 227.99,203.3 229.59,203.93C230.91,204.44 232.36,205.12 233.66,205.69C235.36,206.42 236.66,206.26 238.45,206.14C238.932,206.108 239.421,206.126 239.906,206.145C241.103,206.189 242.28,206.234 243.29,205.53C244.58,204.64 245.26,202.77 245.96,201.34C246.65,199.96 247.33,198.58 247.93,197.27C248.38,196.29 248.94,194.03 249.73,193.27C250.67,192.36 253.17,192.2 254.38,191.83C256.109,191.31 256.92,190.12 258.17,188.96C259.459,187.75 260.65,187.78 262.04,186.94C263.47,186.08 264.37,184.5 265.32,183.2C267.05,180.83 267.69,177.62 268.55,174.74C268.86,173.66 269.24,172.06 269.45,170.4L269.45,170.39C269.64,168.89 269.68,167.36 269.41,166.14C269.33,165.8 269.23,165.49 269.1,165.21L268.95,164.95C268.5,164.33 267.59,163.68 267.28,162.94C267.12,162.56 267.12,162.15 267.43,161.72C267.6,161.49 267.89,161.3 268.27,161.15L268.28,161.15C269.4,160.73 271.16,160.61 271.92,160.38C272.73,160.12 274.06,159.75 275.44,159.27C276.519,158.88 277.63,158.43 278.55,157.92C279.3,157.49 279.91,157.03 280.28,156.53L280.41,156.34C281.54,154.42 279.97,154.16 278.69,153.94C278.34,153.88 278.01,153.82 277.769,153.73C276.21,153.15 276.66,150.98 274.75,151.3C272.35,151.69 274.61,153.34 275.15,154.33C275.38,154.75 275.46,155.06 275.43,155.31C275.38,155.93 274.67,156.16 273.82,156.54C273.71,156.59 273.6,156.64 273.49,156.69C270.79,158.01 268.51,158.96 265.47,159.16C262.52,159.35 259.84,159.37 256.799,159.37C255.37,159.37 253.79,159.69 252.77,158.77C251.02,157.16 250.11,154.93 247.9,153.76L247.76,153.68C247.63,151.91 247.88,150.17 248.03,148.43C248.16,146.99 248.22,145.53 247.97,144.04C247.9,143.64 247.76,143.23 247.59,142.82C247.16,141.78 246.61,140.74 246.96,139.82C247.44,138.56 249.19,137.42 250,136.37C250.72,135.44 251.53,134.5 252.12,133.52C252.22,133.35 252.31,133.2 252.39,133.07C253.16,131.84 253.27,131.97 255.19,131.54C256.85,131.17 257.62,130.16 255.59,129.52C254.15,129.06 252.71,129.72 251.56,128.49C250.72,129.22 250.19,129.65 249.14,129.93C247.82,130.28 247.82,130.35 246.68,131.09C245.86,131.62 244.51,132.12 243.5,131.74C242.47,131.36 242.48,130.69 241.69,129.93C240.12,128.44 238.07,129.14 236.18,129.17C234.66,129.18 233.72,128.71 232.42,127.97C231.8,127.62 231.29,127.25 230.89,126.87C229.4,125.48 229.49,123.96 231.41,122.4C232.29,121.69 233.1,120.59 233.53,119.38C233.81,118.61 233.93,117.81 233.82,117.02C233.53,114.86 232.85,112.85 232.61,110.57C232.46,109.15 232.21,109.11 231.6,107.96C231,106.84 231.24,105.92 231.2,104.73C231.14,103.33 230.46,101.87 230,100.44C229.74,99.681 229.56,98.931 229.56,98.201C229.56,97.991 229.58,97.78 229.61,97.57C229.95,95.5 232.08,94.28 232.49,92.21C232.86,90.351 232.73,88.721 233.52,86.911C234.25,85.241 235.29,83.721 236.29,82.201C238.25,79.241 240.51,78.88 243.1,76.661C245.5,74.601 246.519,71.57 249.1,69.391C253.96,65.25 261.01,63.48 266.88,61.331C273.1,59.06 278.11,56.351 284.83,55.931C287.43,55.77 290.16,54.96 290.88,57.561L290.92,57.77C290.96,58.02 290.95,58.3 290.92,58.61C290.84,59.23 290.64,59.94 290.47,60.67C290.14,61.991 289.89,63.371 290.54,64.36C290.64,64.52 290.769,64.67 290.92,64.811C291.23,65.09 292.88,65.3 294.4,65.291C295.74,65.28 296.99,65.09 297.17,64.61C297.42,63.96 296.69,63.351 295.83,62.641C295.31,62.21 294.74,61.741 294.33,61.19C293.99,60.741 293.75,60.25 293.73,59.681L293.73,59.601C294.04,59.613 294.342,59.554 294.647,59.495C295.071,59.412 295.5,59.33 295.96,59.44L296.13,59.491L296.12,59.451C295.78,57.581 293.73,57.33 293.12,55.76C294.76,55.56 296,55.161 297.52,55.73C298.95,56.271 299.58,57.8 301.16,58.15C304.49,58.9 306.7,55.94 309.38,54.951C310.942,54.373 312.569,54.425 314.2,54.477C315.504,54.519 316.811,54.56 318.09,54.28C321.06,53.63 324.2,52.451 326.96,51.3C330.1,49.991 332.24,47.31 335.43,48.27C337.14,48.79 337.51,49.77 339.46,49.88C340.114,49.922 340.581,49.775 340.975,49.627C341.727,49.347 342.217,49.067 343.24,50.09C344.68,51.53 344.35,55.791 345.11,57.75C346.06,60.19 347.26,62.25 349.08,64.241C353.2,68.741 356.94,69.871 362.42,67.851C362.1,75.32 364.61,76.23 371.69,76.931C372.7,78.32 372.76,80.431 372.46,82.8C371.93,87.121 370.21,92.29 370.87,95.451L370.9,95.561C371.58,98.69 373.24,101.82 373.53,104.71C373.62,105.6 373.5,106.44 373.28,107.26Z" style="fill:rgb(39,190,171);fill-rule:nonzero;"/>
            <path d="M114.5,293.66C114.5,293.89 114.48,294.14 114.42,294.41C114.28,295.06 114.02,295.5 113.67,295.77C112.14,296.98 108.96,295.16 107.4,295.05C104.58,294.84 101.8,296.62 99.569,298.07C98.839,297.32 97.39,295.71 96.439,294.12C96.02,293.43 95.7,292.74 95.58,292.13C95.49,291.73 95.49,291.36 95.58,291.05C95.79,290.35 96.49,289.88 97.93,289.81C101.06,289.67 103.94,290.61 107.2,290.41C109.48,290.27 114.5,290.45 114.5,293.66Z" style="fill:rgb(39,190,171);fill-rule:nonzero;"/>
            <path d="M129.66,282.3C129.66,282.49 129.63,282.71 129.58,282.95C129.44,283.57 129.09,284.15 128.59,284.68C127.03,286.34 124.1,287.47 122.48,287.75C120.44,288.1 120.15,287.42 118.49,286.94C117.72,286.71 115.25,286.29 114.71,285.77C113.78,284.86 114.6,282.52 113.61,281.39C112.55,280.18 110.8,280.55 109.57,279.99C107.65,279.13 108.67,278.29 106.45,278.98C105.12,279.39 104.15,281.02 102.56,281.34C100.73,281.71 97.609,281.31 96.24,279.61C95.899,279.17 95.66,278.65 95.6,278.04C95.589,277.91 95.58,277.77 95.58,277.64C95.58,273.02 104.53,271.44 107.8,272.07C110.78,272.66 114.11,272.81 117.09,273.49C121.22,274.42 121.26,275.71 123.88,278.56C125.72,280.57 129.66,279.8 129.66,282.3Z" style="fill:rgb(39,190,171);fill-rule:nonzero;"/>
            <path d="M140.14,321.34L140.14,321.74C140.12,322.4 139.86,323.17 139.44,324C137.27,328.26 130.74,334.07 128.429,335.22C126.72,336.07 125.53,335.55 123.73,335.98C121.7,336.46 121.88,337.33 120.15,338.45C119.117,339.117 118.495,338.98 117.942,338.843C117.542,338.743 117.178,338.644 116.72,338.85C115.38,339.44 114.93,341.15 113.48,341.59C113.65,340.81 113.3,339.83 113.42,339.03C112.399,338.955 111.399,339.459 110.409,339.963C108.878,340.742 107.37,341.521 105.84,340.16C103.63,338.2 105.88,335.05 103.83,333.1C102.989,332.308 102.091,332.316 101.239,332.324C100.714,332.329 100.206,332.333 99.74,332.15C98.609,331.7 97.859,330.7 96.919,330.33C95.62,329.83 93.939,330.19 92.629,329.78C91.27,329.36 91.68,327.7 89.49,328.35C89.439,329.18 88.83,329.88 88.81,330.72C86.99,330.48 86.049,328.46 84.359,329.88C83.23,330.83 83.72,333.14 83.77,334.86C83.779,335.03 83.779,335.19 83.779,335.35L83.669,335.34L83.399,335.33L83.18,335.32C82.819,335.31 82.419,335.31 80.35,335.28C80.169,335.28 80,335.28 79.819,335.269C79.71,335.269 79.609,335.26 79.5,335.26C78.7,335.22 77.91,335.16 77.24,335.02C77.1,335 76.97,334.97 76.839,334.94C76.589,334.88 76.359,334.81 76.149,334.72C74.27,333.96 72.839,331.61 71.919,329.93C71.77,329.65 71.629,329.4 71.52,329.17C71.1,328.31 70.919,327.71 70.919,327.17C70.919,326.36 71.31,325.67 71.87,324.38L71.97,324.14C72.56,322.72 73.25,323.25 72.689,321.73C72.649,321.64 72.609,321.53 72.569,321.42C72.1,320.22 70.83,319.8 70.44,318.51C70.41,318.4 83.87,313.95 85.839,314.97C88.23,316.22 88.919,317.31 91.689,318.03C96.25,319.2 99.48,321.68 103.33,324.26C104.04,322.198 106.062,322.845 108.01,323.491C109.133,323.863 110.232,324.236 111.04,324.09C113.52,323.64 115.37,319.79 118.04,321.24C119.28,317.87 120.26,312.06 124.3,317.02C125.7,318.74 124.99,319.28 127.16,320.5C128.59,321.3 130.64,322.58 132.17,323.04C131.79,321.95 132.19,321.35 132.6,320.44C133.58,321.21 134.51,322.14 135.61,322.07C133.56,318.53 138.6,318.24 139.91,320.61C140.03,320.83 140.1,321.07 140.14,321.34Z" style="fill:rgb(39,190,171);fill-rule:nonzero;"/>
            <path d="M177.8,112.13C177.8,113.51 171.41,116.82 171.28,115.45L171.28,115.33L171.3,115.25C171.65,113.78 172.83,111.99 174.47,111.74C176.91,111.37 177.8,111.62 177.8,112.13Z" style="fill:rgb(39,190,171);fill-rule:nonzero;"/>
            <path d="M195.31,90.741C195.31,91.53 194.55,92.101 194.3,92.831C194.15,93.26 194.09,93.75 194.04,94.241C193.99,94.721 193.96,95.201 193.88,95.65C193.55,97.5 193.35,99.141 193.46,101.06C192.09,102.03 191.67,101.48 191.08,103.32C190.58,104.92 190.95,105.68 189.26,106.14C186.66,106.83 186.89,107.52 185.42,109.73C184.25,111.49 181.51,111.91 179.78,110.52C179.13,110 178.72,109.37 178.48,108.68C178.27,108.12 178.19,107.51 178.19,106.89C178.19,105.02 178.94,102.99 179.59,101.46C181.01,98.161 182.81,94.55 184.82,91.61C185.81,90.17 187.21,89.061 188.41,87.73C189.11,86.951 189.62,86.46 190.08,86.371C190.59,86.27 191.05,86.69 191.68,87.79C192.06,88.46 192.22,89.51 192.93,89.971C193.53,90.36 194.58,90.15 195.27,90.44C195.3,90.54 195.31,90.641 195.31,90.741Z" style="fill:rgb(39,190,171);fill-rule:nonzero;"/>
            <path d="M243.1,51.88L243.1,52.11C243,53.181 241.29,53.54 240.51,53.96C239.76,54.371 239.27,54.94 238.79,55.491C238.45,55.891 238.11,56.27 237.7,56.59C236.88,57.221 235.05,57.061 233.75,57.28L233.61,57.3C232.17,57.561 230.3,57.621 228.97,58.351C228.63,58.54 228.35,58.75 228.1,58.98C227.37,59.641 226.86,60.411 225.8,60.82C224.4,61.36 222.66,61.03 221.27,61.53C219.96,62 218.92,62.971 217.73,63.65C217.09,64.02 216.13,64.19 215.47,64.65C214.81,65.101 214.29,66.241 213.47,66.431C213.01,66.53 212.65,66.451 212.39,66.25C211.88,65.9 211.69,65.15 211.69,64.411C211.69,64.04 211.74,63.681 211.82,63.371C212.45,61.05 216.8,58.63 218.9,57.75C220.2,57.201 221.58,56.67 222.94,56.13C225.58,55.101 228.4,55.17 230.98,54.32C233.79,53.4 236.76,51.831 239.67,51.3C240.66,51.11 243.01,50.48 243.1,51.88Z" style="fill:rgb(39,190,171);fill-rule:nonzero;"/>
            <path d="M277.34,48.11C276.84,50.29 271.17,50.09 269.3,50.09C266.29,50.09 263.86,51.82 260.88,51.451C259.45,51.28 257.95,50.8 256.45,51.351C255.4,51.73 254.27,52.67 253.3,53.36C253.2,53.44 253.1,53.51 253.01,53.57C251.53,54.59 250.88,54.59 249.34,53.77C249.04,53.61 248.77,53.391 248.53,53.121C248.01,52.54 247.67,51.76 247.67,50.991C247.67,50.71 247.71,50.431 247.81,50.17C248.61,48.01 250.59,48.88 252.21,49.23C253.32,49.48 254.85,49.36 256,49.28C258.519,49.11 260.579,48.05 263.05,47.71C267.51,47.11 273.08,46.57 277.34,48.11Z" style="fill:rgb(39,190,171);fill-rule:nonzero;"/>
            <path d="M326.14,37.741C325.31,38.78 323.08,38.931 321.97,38.92C320.67,38.911 319.73,38.25 319.73,37.63C319.73,37.19 320.2,36.77 321.37,36.641C322.34,36.53 325.7,36.471 326.14,37.741Z" style="fill:rgb(39,190,171);fill-rule:nonzero;"/>
            <path d="M225.091,196.908C228.543,199.455 231.572,202.599 235.833,203.716C237.529,204.165 239.735,203.164 241.272,202.459C244.398,201.027 245.243,197.932 245.191,194.739C245.164,192.848 244.853,192.229 246.84,191.534C248.36,191.001 250.125,191.069 251.318,189.814C252.46,188.611 253.515,187.357 254.986,186.621C256.653,185.786 258.427,185.346 260.031,184.313C261.252,183.526 263.046,182.4 263.813,181.092C264.478,179.958 264.647,178.704 265.321,177.515C266.928,174.68 267.282,171.28 267.083,168.032C266.839,164.055 262.686,165.101 259.667,164.562C258.127,164.286 257.19,163.481 255.745,162.845C254.258,162.192 252.912,161.924 251.515,161.179C250.444,160.606 251.076,160.278 249.794,160.825C249.244,161.06 248.862,161.651 248.387,162.035C247.236,162.959 245.989,163.869 244.709,164.655C242.081,166.273 239.442,167.164 237.205,169.391C236.143,170.445 235.457,171.732 234.416,172.676C233.488,173.517 231.654,174.535 231.393,175.892C231.126,177.282 233.324,179.048 231.396,179.726C230.732,179.958 229.94,179.345 229.173,179.521C228.195,179.744 227.831,180.489 227.411,181.34C226.296,183.594 226.158,182.536 223.938,182.495C222.873,182.474 221.934,183.235 220.97,183.614C219.658,184.132 218.168,184.269 216.924,184.951C213.802,186.67 211.917,187.673 212.174,191.425C212.314,193.462 212.708,195.996 215.107,195.629C216.749,195.377 218.08,194.791 219.967,195.009C221.8,195.219 223.594,195.803 225.091,196.908Z" style="fill:rgb(39,190,171);fill-rule:nonzero;"/>
            <path d="M305.04,43.141L305.03,43.28C304.77,44.951 302.12,44.29 300.96,44.69C299.26,45.26 298.28,46.84 296.51,47.26C295.827,47.422 295.164,47.419 294.494,47.417C293.712,47.414 292.92,47.412 292.08,47.67C291.83,47.75 291.58,47.88 291.33,48.04C290.23,48.75 289.1,50.02 288.06,50.09C287.5,50.121 287.08,49.971 286.77,49.71C286.32,49.31 286.13,48.641 286.13,47.951C286.13,47.4 286.25,46.82 286.45,46.351C287.46,43.931 289.4,44.04 291.68,44.04C293.35,44.04 295.07,44.121 296.72,43.991C298.35,43.871 299.56,42.951 301.17,42.63C302.16,42.44 305.04,41.871 305.04,43.141Z" style="fill:rgb(39,190,171);fill-rule:nonzero;"/>
            <path d="M312.549,39.609C313.471,39.673 317.938,39.498 317.764,38.373C317.722,38.105 317.415,37.782 316.731,37.395C315.521,36.71 312.496,36.971 311.346,37.672C310.837,37.984 310.636,38.274 310.634,38.53C310.63,39.139 311.754,39.554 312.549,39.609Z" style="fill:rgb(39,190,171);fill-rule:nonzero;"/>
            <path d="M207.6,69.79C207.6,71.891 204.89,73.82 203.36,74.471C202.59,74.8 201.12,74.891 200.6,75.741C200.32,76.21 200.38,76.69 200.46,77.161C200.56,77.67 200.67,78.17 200.43,78.65C200.35,78.79 200.23,78.931 200.09,79.061C198.88,80.13 197.43,80.21 196.21,81.391C195.29,82.27 194.57,83.23 193.13,82.911L192.9,82.851C191.99,82.59 191.66,82.101 191.66,81.51C191.66,80.38 192.87,78.911 193.49,78.07C195.29,75.65 197.3,74.831 199.94,73.431C201.29,72.71 202.55,72.161 203.82,71.3C204.81,70.63 206.34,69.351 207.58,69.471C207.59,69.581 207.6,69.681 207.6,69.79Z" style="fill:rgb(39,190,171);fill-rule:nonzero;"/>
            <path d="M149.56,281.07C148.28,282.06 146.14,282.59 144.5,282.35C142.26,282.02 139.01,279.86 136.83,278.97C134.34,277.96 130.83,277.05 128.57,275.7C125.52,273.86 126.38,271.23 125.2,268.19C123.8,264.59 121.41,264.39 117.9,264.8C117.22,264.87 115.28,265.57 113.6,265.93C112.39,266.18 111.32,266.26 110.97,265.79C110.86,265.64 110.79,265.48 110.76,265.32L110.76,265.04C110.98,262.71 118.13,259.33 119.25,258.71C122.44,256.951 123.22,257.69 125.39,259.921C129.009,263.65 133.93,264.74 137.8,268.29C139.81,270.13 141.67,272.31 143.86,273.94C145.82,275.4 149.49,275.92 150.5,278.37C150.94,279.43 150.46,280.37 149.56,281.07Z" style="fill:rgb(39,190,171);fill-rule:nonzero;"/>
            <path d="M287.033,152.495C292.248,152.763 291.833,150.512 288.318,147.76C286.591,146.406 285.823,145.412 283.612,146.455C282.077,147.179 280.545,149.112 281.394,150.851C282.294,152.695 285.056,152.395 287.033,152.495Z" style="fill:rgb(171,218,228);fill-rule:nonzero;"/>
            <path d="M250.963,120.161C255.69,116.983 250.767,113.958 247.437,114.614C244.062,115.278 240.332,117.378 238.562,120.109C236.598,123.138 238.386,125.571 242.464,123.91C244.127,123.233 244.77,121.284 246.466,120.602C247.869,120.037 249.63,121.057 250.963,120.161Z" style="fill:rgb(171,218,228);fill-rule:nonzero;"/>
            <path d="M262.724,128.855C265.813,129.521 272.129,126.426 270.136,122.319C268.682,119.325 261.874,120.41 260.236,122.888C258.573,125.406 259.773,128.218 262.724,128.855Z" style="fill:rgb(171,218,228);fill-rule:nonzero;"/>
            <path d="M240.6,258.1L238.85,260.02C238.82,260.05 238.72,260.16 238.54,260.34C237.03,261.83 230.09,268 218.28,268.75C217.84,268.77 217.41,268.79 216.99,268.79C214.42,268.79 212.07,268.31 209.78,267.85C206.55,267.2 203.49,266.58 199.9,267.28C195.44,268.15 190.65,268 186.02,267.86C184.27,267.8 182.63,267.75 181,267.75C179.21,267.75 177.76,267.65 176.34,267.25C175.5,267.01 174.67,266.67 173.78,266.18C173.51,266.03 173.26,265.88 173.03,265.72C171.26,264.53 170.41,263.04 169.53,261.481C169.35,261.16 169.16,260.84 168.96,260.5C167.83,258.6 167.46,258.481 165.06,258.5C163.42,258.5 162.77,258.43 161.41,257.481C160.79,257.05 160.37,256.59 160.03,256.231C159.56,255.72 159.52,255.68 159.23,255.73C159.12,255.8 158.99,255.91 158.85,256.011C158.39,256.35 157.82,256.78 157.15,256.96C156.37,257.16 155.54,257.1 154.81,257.041C154.52,257.02 154.25,256.99 153.99,257C153.18,257.011 152.68,257.16 152,257.38C151.63,257.49 151.25,257.6 150.8,257.71C149.73,257.96 148.48,258.12 147.2,258.18C145.85,258.25 144.48,258.201 143.24,258.041C142.58,257.96 141.96,257.85 141.4,257.71C138.68,257 137.02,255.23 135.41,253.53C134.32,252.37 133.29,251.269 131.96,250.56C130.63,249.84 130.33,247.95 129.78,242.29C130.84,242.73 131.84,243.11 132.57,243.19C132.68,243.2 132.78,243.21 132.88,243.21C133.08,245.14 133.34,247.33 133.63,248.06C135.26,248.99 136.45,250.25 137.59,251.47C139.03,252.99 140.27,254.31 142.16,254.8C144.29,255.36 147.78,255.36 150.09,254.8C150.48,254.71 150.8,254.6 151.11,254.51C151.89,254.27 152.71,254.02 153.96,254C154.28,254 154.66,254.02 155.04,254.05C155.51,254.09 156.1,254.13 156.39,254.05C156.52,254.01 156.85,253.76 157.05,253.61C157.49,253.28 157.94,252.94 158.49,252.82C160.55,252.38 161.56,253.47 162.23,254.19C162.51,254.49 162.77,254.78 163.13,255.02C163.82,255.51 163.81,255.51 165.04,255.5C167.03,255.49 168.36,255.68 169.5,256.52C170.22,257.041 170.86,257.81 171.54,258.96C171.64,259.13 171.74,259.3 171.83,259.46C171.94,259.641 172.04,259.82 172.14,260C173.02,261.56 173.67,262.7 175.22,263.55C177.07,264.57 178.56,264.75 181,264.75C182.68,264.75 184.42,264.8 186.11,264.86C190.58,265 195.19,265.14 199.33,264.33C203.5,263.52 206.99,264.23 210.38,264.91C212.96,265.43 215.4,265.92 218.09,265.75C226.58,265.21 232.37,261.52 235.02,259.421C233.75,258.65 232.15,257.34 230.53,255.11C229.74,254 229.06,252.97 228.46,252.05C226.55,249.13 225.29,247.21 222.04,245.66C221.14,245.23 220.22,244.83 219.3,244.42C217.67,243.71 216.01,242.98 214.43,242.11C213.48,241.58 212.57,241.01 211.7,240.36C210.58,239.52 209.55,238.54 208.64,237.37C207.38,235.75 206.36,233.81 205.46,232.09L205.16,231.51C203.96,229.23 202.42,227 201.08,225.12C198.69,221.78 199.37,217.95 199.98,214.57C200.25,213.04 200.5,211.6 200.5,210.25C200.5,209.44 200.53,208.59 200.57,207.74C200.64,206.26 200.7,204.74 200.54,203.39C200.27,201.21 200.69,198.26 201.07,195.66C201.15,195.14 201.22,194.63 201.29,194.14C201.34,193.74 201.39,193.35 201.43,192.99L201.56,193.04C201.71,193.09 201.86,193.14 201.99,193.2C202.33,193.34 202.62,193.51 202.89,193.69C203.33,193.98 203.74,194.3 204.25,194.59C204.19,195.07 204.11,195.58 204.04,196.09C203.69,198.5 203.29,201.24 203.51,203.02C203.71,204.62 203.64,206.27 203.57,207.87C203.53,208.67 203.5,209.47 203.5,210.24C203.51,211.86 203.21,213.51 202.93,215.1C202.38,218.17 201.87,221.07 203.52,223.38C204.92,225.34 206.53,227.67 207.81,230.11L208.12,230.7C208.96,232.3 209.92,234.12 211.01,235.53C213.35,238.54 216.82,240.06 220.5,241.67C221.45,242.09 222.4,242.51 223.33,242.95C226.01,244.23 227.62,245.74 229,247.54C229.12,247.7 229.25,247.88 229.38,248.05L229.38,248.06C229.79,248.62 230.19,249.21 230.59,249.83L230.67,249.96C230.769,250.11 230.87,250.25 230.97,250.41C231.58,251.34 232.21,252.3 232.97,253.35C235.04,256.22 237.03,257.171 237.76,257.44L237.77,257.44C237.95,257.511 238.05,257.53 238.05,257.53L240.6,258.1Z" style="fill:rgb(171,218,228);fill-rule:nonzero;"/>
            <path d="M169.5,259.5L169.5,256.5C171.661,256.5 172.958,256.472 174.468,255.896C176.476,255.133 178.695,254.195 180.652,253.369L180.916,253.258C184.257,251.848 187.635,250.614 191.549,249.377C192.372,249.116 193.129,249.095 193.796,249.076C194.121,249.067 194.453,249.061 194.804,249.018C195.844,248.889 196.318,248.648 197.104,248.251C197.335,248.134 197.58,248.01 197.854,247.881C199.56,247.075 201.477,246.588 203.168,246.158L204.551,245.805C209.113,244.642 211.505,243.852 211.753,239.906L214.747,240.094C214.35,246.402 209.538,247.629 205.292,248.711L203.907,249.065C202.271,249.481 200.58,249.911 199.134,250.594C198.888,250.71 198.668,250.822 198.459,250.928C197.571,251.377 196.731,251.803 195.17,251.994C194.721,252.05 194.295,252.063 193.88,252.075C193.319,252.091 192.875,252.104 192.453,252.237C188.631,253.445 185.335,254.648 182.083,256.022L181.819,256.133C179.839,256.97 177.594,257.917 175.536,258.701C173.436,259.5 171.612,259.5 169.5,259.5Z" style="fill:rgb(171,218,228);fill-rule:nonzero;"/>
            <path d="M288.8,258.921C287.19,258.1 286.28,257.49 286.1,257.141C286.05,256.981 286.07,256.481 286.09,256.18C286.11,255.51 286.14,254.82 285.91,254.18C285.45,252.93 284.76,252.5 284.16,252.19C283.97,252.09 283.91,252.06 283.84,251.98C283.58,251.72 283.42,251.39 283.22,250.98C282.92,250.37 282.54,249.6 281.75,248.88L281.52,248.68C280.72,248 279.76,247.45 278.67,247.03C278.51,246.97 278.35,246.91 278.18,246.85L278.03,246.8C275.21,245.84 273.35,245.21 270.04,245.84C269.08,246.02 268.15,246.12 267.25,246.22C265.769,246.39 264.23,246.56 262.56,247.07C261.56,247.38 260.44,247.47 259.269,247.58C258.109,247.68 256.92,247.78 255.75,248.09C253.02,248.82 249.05,248.97 248.02,248.08C247.97,248.04 247.9,247.86 247.83,247.68C247.67,247.25 247.43,246.61 246.8,246.06C245.9,245.26 244.37,244.72 243.23,244.4C241.06,243.79 239.43,244.12 237.99,244.57C237.62,244.68 236.96,244.88 236.19,245.11C235.01,245.46 233.57,245.89 232.42,246.25C231.24,246.62 229.86,247.04 229,247.54C228.53,247.81 228.21,248.09 228.16,248.41L228.16,248.42C228.13,248.62 228.15,248.85 228.22,249.11C228.4,249.82 228.86,250.11 229.37,250.19C229.59,250.23 230.13,250.11 230.67,249.96C231.35,249.77 232.019,249.53 232.019,249.53C233.09,249.17 235.69,248.39 237.05,247.98C237.84,247.75 238.51,247.55 238.88,247.43C240.1,247.05 241.07,246.9 242.42,247.28C243.76,247.66 244.55,248.07 244.82,248.31C244.88,248.36 244.93,248.48 245.03,248.75C245.19,249.17 245.44,249.82 246.07,250.36C249.06,252.93 256.44,251.01 256.519,250.99C257.44,250.75 258.45,250.66 259.519,250.57C260.81,250.45 262.13,250.34 263.43,249.94C264.84,249.51 266.17,249.36 267.58,249.21C268.54,249.1 269.53,248.99 270.6,248.79C273.13,248.31 274.37,248.731 277.07,249.64L277.22,249.69C278.22,250.03 279.09,250.52 279.73,251.1C280.1,251.44 280.29,251.82 280.53,252.3C280.79,252.84 281.09,253.45 281.66,254.05C282.1,254.51 282.519,254.72 282.8,254.86L282.97,254.95C282.97,254.95 283.02,255.01 283.08,255.19C283.12,255.33 283.1,255.77 283.09,256.06C283.06,256.8 283.02,257.65 283.38,258.4C283.5,258.65 283.66,258.9 283.86,259.13C284.12,259.451 284.46,259.75 284.84,260.041C285.6,259.78 286.37,259.57 287.11,259.41L287.12,259.41C287.72,259.28 288.31,259.18 288.83,259.13L288.8,258.921Z" style="fill:rgb(171,218,228);fill-rule:nonzero;"/>
            <path d="M287.2,259.141C287.18,259.231 287.15,259.32 287.12,259.41L287.11,259.41C286.37,259.57 285.6,259.78 284.84,260.041C283.64,260.46 282.48,260.981 281.6,261.58C281.06,261.951 280.67,262.26 280.39,262.54C279.94,262.5 279.52,262.45 279.13,262.4C278.29,262.29 277.42,262.18 276.92,262.24C276.26,262.32 275.64,262.62 274.93,262.97C273.98,263.42 272.91,263.94 271.57,264L271.31,264C269.33,264 267.97,263.05 266.76,262.2C266.44,261.97 266.11,261.74 265.76,261.52C259.829,257.8 245.65,258.35 238.54,260.34C238.41,260.37 238.3,260.41 238.18,260.44L237.32,257.56C237.46,257.52 237.61,257.481 237.76,257.44L237.77,257.44C245.76,255.21 260.56,254.72 267.35,258.97C267.75,259.22 268.13,259.49 268.49,259.74C269.67,260.57 270.39,261.041 271.45,261C272.16,260.97 272.84,260.641 273.62,260.27C274.46,259.86 275.41,259.4 276.56,259.261C277.42,259.16 278.43,259.291 279.51,259.421C281.85,259.72 283.19,259.75 283.86,259.13C284.07,258.94 284.21,258.69 284.3,258.36L287.2,259.141Z" style="fill:rgb(171,218,228);fill-rule:nonzero;"/>
            <path d="M170.199,270.621C169.807,270.621 169.386,270.577 168.932,270.479C167.415,270.149 166.584,269.15 165.979,268.42C165.665,268.042 165.393,267.715 165.14,267.601C164.815,267.474 163.65,267.506 163.026,267.525C162.37,267.545 161.751,267.563 161.253,267.503L160.678,267.435C156.944,266.993 152.713,266.492 149.237,264.462C148.588,264.083 146.959,263.048 145.834,261.636C145.385,261.073 145.05,260.474 144.753,259.944C144.284,259.104 143.913,258.442 143.235,258.041L144.765,255.46C146.137,256.272 146.793,257.445 147.372,258.479C147.635,258.951 147.884,259.395 148.18,259.766C148.743,260.473 149.704,261.261 150.751,261.873C153.687,263.587 157.419,264.028 161.03,264.455L161.609,264.524C161.887,264.559 162.421,264.542 162.938,264.526C164.173,264.492 165.455,264.453 166.373,264.866C167.258,265.265 167.828,265.952 168.287,266.504C168.782,267.1 169.085,267.442 169.568,267.547C170.793,267.809 171.356,267.329 172.417,266.298C173.306,265.434 174.413,264.357 176.16,264.253L176.34,267.247C175.734,267.283 175.272,267.706 174.508,268.449C173.541,269.389 172.273,270.621 170.199,270.621Z" style="fill:rgb(171,218,228);fill-rule:nonzero;"/>
            <path d="M300.25,223.08L300.18,224.37C300.09,226.14 300,227.97 299.72,229.73C299.69,229.93 299.66,230.13 299.63,230.35C299.5,231.33 299.34,232.56 298.75,233.53C298.28,234.31 297.57,234.78 296.94,235.19C296.62,235.41 296.17,235.71 296.07,235.89C295.71,236.57 295.96,237.37 296.39,238.62C296.79,239.79 297.25,241.11 296.92,242.55L296.67,243.63L295.56,243.71C295.4,243.72 295.23,243.73 295.06,243.75C294.26,243.82 293.27,243.91 292.41,243.71C291.17,243.42 290.44,243.2 290.01,241.98C289.95,241.81 289.89,241.63 289.71,241.33C289.49,240.96 289.35,240.88 289.35,240.88C289.35,240.92 288.99,241.03 287.99,241.89C286.79,242.91 286.02,244.07 285.21,245.3C284.91,245.75 284.62,246.2 284.3,246.64C283.77,247.38 282.86,247.91 281.98,248.41C281.84,248.49 281.68,248.58 281.52,248.68C281.14,248.9 280.75,249.15 280.63,249.3C280.64,249.28 280.68,249.22 280.7,249.12L277.8,248.38C277.94,247.84 278.26,247.4 278.67,247.03C279.18,246.56 279.84,246.19 280.48,245.82C280.93,245.55 281.69,245.12 281.85,244.9C282.15,244.48 282.43,244.06 282.71,243.64C283.6,242.29 284.52,240.9 286.04,239.6C287.13,238.67 288.41,237.7 289.89,237.94C290.82,238.09 291.63,238.71 292.27,239.78C292.51,240.16 292.65,240.47 292.74,240.71C292.83,240.73 292.94,240.75 293.09,240.79C293.29,240.84 293.6,240.84 293.94,240.83C293.85,240.44 293.7,240.03 293.55,239.6C293.05,238.15 292.43,236.36 293.42,234.49C293.87,233.64 294.62,233.14 295.28,232.7C295.65,232.45 296.06,232.18 296.19,231.97C296.45,231.54 296.57,230.66 296.66,229.96C296.69,229.71 296.72,229.48 296.76,229.26C297.01,227.66 297.1,225.91 297.18,224.22L297.25,222.91C297.37,220.87 297.06,220.23 296.96,220.08C296.86,219.95 296.36,219.72 296.06,219.58C295.33,219.25 294.42,218.83 293.92,217.91C293.23,216.61 293.9,215.36 294.34,214.54C294.5,214.23 294.78,213.72 294.76,213.53C294.73,213.04 293.84,211.52 293.46,210.88C293.26,210.53 293.07,210.21 292.93,209.94C291.33,206.95 290.3,204.1 289.77,201.21C289.17,197.94 289.29,194.41 289.41,190.99C289.46,189.62 289.5,188.33 289.5,187.06C289.5,184.74 288.85,183.98 287.56,182.48C287.12,181.95 286.61,181.36 286.08,180.63C285.64,180.03 285.39,179.3 285.15,178.6C284.97,178.08 284.73,177.36 284.5,177.15C284.17,176.84 283,176.69 282.14,176.58C281.1,176.44 280.02,176.29 279.1,175.86C276.84,174.8 275.81,173.18 274.9,171.75C274.29,170.81 273.72,169.91 272.81,169.16C271.86,168.39 270.81,167.43 269.7,166.41C269.6,166.32 269.51,166.23 269.41,166.14C269.33,165.8 269.23,165.49 269.1,165.21L268.95,164.95C268.5,164.33 267.59,163.68 267.28,162.94C267.12,162.56 267.12,162.15 267.43,161.72C267.6,161.49 267.89,161.3 268.27,161.15L268.28,161.15C269.39,162.06 270.57,163.14 271.72,164.2C272.8,165.19 273.82,166.12 274.71,166.84C276,167.89 276.76,169.09 277.43,170.14C278.25,171.44 278.9,172.46 280.38,173.15C280.87,173.38 281.72,173.49 282.54,173.6C283.45,173.72 284.37,173.84 285.18,174.14C285.68,174.33 286.14,174.59 286.54,174.95C286.92,175.3 287.19,175.72 287.41,176.16C287.65,176.64 287.82,177.15 287.99,177.62C288.15,178.09 288.33,178.63 288.51,178.87C288.97,179.5 289.41,180.02 289.84,180.53C291.27,182.19 292.5,183.63 292.5,187.06C292.5,188.38 292.45,189.76 292.41,191.1C292.3,194.35 292.18,197.72 292.72,200.67C293.2,203.28 294.1,205.78 295.57,208.52C295.7,208.76 295.87,209.05 296.05,209.36C296.97,210.93 297.67,212.21 297.76,213.3C297.84,214.36 297.36,215.25 296.98,215.96C296.89,216.14 296.75,216.38 296.68,216.56C296.83,216.64 297.11,216.76 297.3,216.85C298,217.17 298.88,217.56 299.44,218.4C300.12,219.4 300.37,220.89 300.25,223.08Z" style="fill:rgb(171,218,228);fill-rule:nonzero;"/>
            <path d="M291.2,167.62C291.22,170.71 289.38,173.9 287.41,176.16C287.12,176.48 286.84,176.78 286.56,177.06L284.44,174.94C284.69,174.7 284.94,174.43 285.18,174.14C286.72,172.38 288.22,169.88 288.2,167.64C288.2,166.52 287.81,165.6 287.01,164.82C286,163.84 285.11,162.49 284.18,161.06C282.93,159.14 281.65,157.18 280.28,156.53L280.41,156.34C281.54,154.42 279.97,154.16 278.69,153.94L279.563,153.75C283.313,153.17 284.65,156.3 286.69,159.42C287.53,160.71 288.33,161.92 289.1,162.68C290.47,164.01 291.19,165.72 291.2,167.62Z" style="fill:rgb(171,218,228);fill-rule:nonzero;"/>
            <path d="M294.58,311.32C294.46,312.76 294.34,314.26 294.43,315.8C294.55,317.88 294.14,319.38 293.74,320.83C293.55,321.52 293.36,322.24 293.22,323.03C293.12,323.57 293.05,324.06 292.99,324.519C292.75,326.2 292.55,327.65 291.39,329.49C290.53,330.86 289.48,331.96 288.47,333.01C287.7,333.81 286.98,334.56 286.38,335.38C285.77,336.23 285.2,337.16 284.6,338.15C283.92,339.28 283.21,340.45 282.4,341.53C280.73,343.74 276.8,346.43 273.25,348.77C272.8,349.06 272.42,349.31 272.14,349.51C271.39,350.02 270.46,350.54 269.39,351.06C270.27,350.2 271.21,349.23 271.29,348.27C270.42,348.08 269.51,348.04 268.6,348.1C269.31,347.73 269.94,347.37 270.44,347.03C270.74,346.83 271.14,346.57 271.6,346.26C273.84,344.78 278.51,341.71 280,339.73C280.72,338.76 281.39,337.66 282.04,336.6C282.64,335.6 283.27,334.57 283.96,333.62C284.68,332.63 285.5,331.769 286.3,330.93C287.25,329.94 288.15,329.01 288.85,327.9C289.67,326.6 289.8,325.66 290.02,324.1C290.09,323.61 290.16,323.09 290.26,322.51C290.43,321.58 290.64,320.79 290.85,320.04C291.21,318.71 291.53,317.56 291.44,315.97C291.33,314.22 291.47,312.62 291.59,311.08C291.87,307.7 292.07,305.25 289.78,303.08C287.17,300.59 285.93,297.75 284.73,295C284.08,293.52 283.41,291.99 282.519,290.51C282.32,290.17 282.12,289.86 281.92,289.55C281.34,288.66 280.74,287.73 280.32,286.47C280.21,286.13 280.12,285.82 280.04,285.52C279.83,284.79 279.7,284.31 279.26,283.73C278.78,283.09 278.1,282.65 277.31,282.15C276.7,281.76 276.06,281.35 275.47,280.81C274.87,280.26 274.42,279.5 273.99,278.76C273.77,278.39 273.57,278.04 273.38,277.79C273.21,277.56 273.06,277.35 272.91,277.15C272.07,275.97 271.84,275.66 270.76,275.48C270.29,275.4 269.73,275.44 269.13,275.48C268.57,275.51 268,275.55 267.39,275.5C264.58,275.29 260.81,274 258.63,272.5C257.79,271.92 257.079,271.27 256.38,270.65C255.15,269.54 254.09,268.59 252.64,268.21C250.31,267.61 247.61,268.13 245.26,268.66C244.35,268.87 243.32,269.01 242.33,269.16C240.7,269.39 239.02,269.63 237.82,270.12C236.44,270.69 235.3,272.19 234.19,273.64C233.85,274.09 233.51,274.54 233.16,274.96C229.64,279.22 225.75,278.94 221.99,278.67C220.24,278.55 218.43,278.41 216.56,278.73C215.85,278.85 215.47,279.1 214.83,279.52C214.44,279.77 214,280.06 213.43,280.34C212.04,281.04 210.52,281.42 209.19,281.76C208.88,281.84 208.57,281.92 208.27,282C204.65,282.97 200.44,282.99 196.73,283L196.56,283C194.29,283.03 192.46,282.33 190.71,281.67C189.71,281.29 188.77,280.94 187.75,280.71C185.68,280.25 183.62,278.8 181.62,277.4C180.06,276.32 178.47,275.2 177.06,274.69C177.36,273.9 177.03,273.22 175.55,272.87C175.32,272.82 175.09,272.81 174.83,272.84C177.594,272.312 180.82,273.19 183.34,274.94C185.1,276.17 186.92,277.45 188.4,277.78C189.63,278.06 190.72,278.46 191.77,278.86C193.32,279.45 194.8,280 196.53,280L196.72,280C200.25,279.99 204.25,279.98 207.49,279.11C207.8,279.02 208.12,278.94 208.45,278.86C209.7,278.54 210.98,278.21 212.09,277.66C212.51,277.45 212.84,277.23 213.19,277C213.92,276.53 214.74,276 216.06,275.77C218.28,275.4 220.37,275.55 222.21,275.68C225.75,275.94 228.31,276.12 230.85,273.04C231.17,272.66 231.48,272.24 231.81,271.82C233.09,270.14 234.54,268.23 236.68,267.35C238.22,266.71 240.09,266.45 241.9,266.19C242.88,266.05 243.8,265.91 244.6,265.73C247.29,265.12 250.41,264.53 253.39,265.3C255.55,265.87 256.989,267.16 258.39,268.41C259.04,269 259.66,269.56 260.34,270.03C262.079,271.23 265.34,272.34 267.62,272.51C268.01,272.54 268.47,272.51 268.95,272.48C269.65,272.44 270.45,272.39 271.24,272.52C273.55,272.9 274.38,274.05 275.35,275.39C275.49,275.58 275.63,275.79 275.79,276C276.07,276.38 276.33,276.82 276.58,277.24C276.87,277.74 277.23,278.35 277.49,278.59C277.9,278.96 278.4,279.28 278.93,279.62C279.83,280.2 280.86,280.85 281.66,281.93C282.43,282.96 282.68,283.85 282.93,284.71C283,284.97 283.07,285.23 283.17,285.52C283.47,286.42 283.92,287.12 284.44,287.92C284.65,288.26 284.88,288.6 285.1,288.97C286.08,290.62 286.79,292.23 287.47,293.8C288.61,296.39 289.68,298.84 291.85,300.91C295.17,304.07 294.87,307.75 294.58,311.32Z" style="fill:rgb(171,218,228);fill-rule:nonzero;"/>
        </g>
    </g>
</svg>
